<svg width="693" height="628" viewBox="0 0 693 628" fill="none" xmlns="http://www.w3.org/2000/svg">

<path d="M0 0.324341H693V102.115H0V0.324341Z" fill="#2C52F5"/>
<g opacity="0.17" clip-path="url(#clip0_0_1)">
<path fill-rule="evenodd" clip-rule="evenodd" d="M661.879 14.3394C667.242 11.2426 671.447 8.81521 674.991 7.25077C678.608 5.65427 681.808 4.82799 685.151 5.17933C687.175 5.39202 689.152 5.92191 691.011 6.74954C694.082 8.11663 696.44 10.4324 698.774 13.6235C701.062 16.7504 703.489 20.9547 706.586 26.3183L706.738 26.5829C709.835 31.9464 712.263 36.151 713.827 39.6952C715.423 43.3121 716.25 46.5125 715.898 49.8552C715.696 51.7812 715.206 53.6655 714.446 55.4455C714.43 55.4836 714.413 55.5218 714.397 55.5599C714.379 55.6005 714.361 55.6411 714.343 55.6817L714.328 55.7153C712.961 58.7859 710.645 61.1444 707.454 63.4784C704.327 65.7656 700.123 68.193 694.759 71.2896L694.495 71.4424C689.131 74.539 684.927 76.9666 681.382 78.531C677.766 80.1275 674.565 80.9537 671.222 80.6024C671.13 80.5927 671.038 80.5824 670.947 80.5714C669.019 80.3409 667.137 79.8222 665.362 79.0322C662.292 77.6651 659.933 75.3493 657.599 72.1583C655.312 69.0313 652.885 64.8269 649.788 59.4632L649.635 59.1989C646.539 53.8352 644.111 49.6308 642.547 46.0865C640.95 42.4696 640.124 39.2692 640.475 35.9265C640.688 33.9029 641.218 31.9253 642.046 30.0664C643.413 26.9959 645.728 24.6374 648.919 22.3033C652.046 20.0161 656.251 17.5887 661.615 14.492L661.879 14.3394ZM710.322 52.0124C706.137 47.5003 699.248 46.3072 693.693 49.5145L676.17 59.6315C670.615 62.8388 668.204 69.4009 670.019 75.2813C670.523 75.3978 671.033 75.4871 671.547 75.5487C671.615 75.5568 671.683 75.5645 671.751 75.5716C673.857 75.793 676.119 75.3249 679.34 73.9032C682.604 72.4623 686.573 70.1748 692.098 66.9853C697.622 63.7957 701.588 61.5022 704.468 59.3956C707.309 57.3171 708.846 55.5924 709.707 53.6579C709.736 53.5916 709.765 53.5251 709.794 53.4584C709.996 52.9856 710.172 52.5029 710.322 52.0124ZM665.119 20.2567C657.457 24.6802 654.832 34.477 659.256 42.1386C663.679 49.8002 673.476 52.4252 681.138 48.0018C688.799 43.5784 691.424 33.7815 687.001 26.12C682.577 18.4584 672.781 15.8333 665.119 20.2567Z" fill="#FAFAFA"/>
</g>
<path fill-rule="evenodd" clip-rule="evenodd" d="M347.82 28.0784C349.943 28.0784 351.608 28.0784 352.943 28.1939C354.303 28.3117 355.423 28.5555 356.427 29.1041C357.838 29.8745 358.998 31.0342 359.768 32.4451C360.317 33.4497 360.561 34.5697 360.678 35.9295C360.794 37.2644 360.794 38.9289 360.794 41.0519V45.651C360.794 45.7369 360.794 45.7891 360.793 45.8346C360.762 48.7404 359.254 51.2901 356.988 52.7694C355.695 53.614 354.153 54.1112 352.499 54.129C352.454 54.1295 352.402 54.1295 352.317 54.1295L352.3 54.1295L352.298 54.1295C352.2 54.1301 352.107 54.1698 352.039 54.2398L351.512 54.7866C350.571 55.7648 349.787 56.5789 349.08 57.1382C348.334 57.7278 347.541 58.1433 346.575 58.1433C345.609 58.1433 344.816 57.7278 344.071 57.1382C343.363 56.5789 342.58 55.7647 341.638 54.7865L341.113 54.241L341.112 54.2398C341.044 54.1698 340.95 54.1301 340.853 54.1295L340.851 54.1295L340.834 54.1295C340.818 54.1295 340.803 54.1295 340.789 54.1295C340.729 54.1295 340.688 54.1294 340.651 54.129C338.997 54.1112 337.456 53.614 336.162 52.7694C333.897 51.2901 332.388 48.7404 332.357 45.8346C332.356 45.7893 332.356 45.7373 332.356 45.652V41.0519C332.356 38.9289 332.356 37.2644 332.472 35.9295C332.59 34.5697 332.834 33.4497 333.382 32.4451C334.153 31.0342 335.312 29.8745 336.723 29.1041C337.728 28.5555 338.848 28.3117 340.208 28.1939C341.543 28.0784 343.207 28.0784 345.33 28.0784H347.82ZM355.896 50.8688C354.864 49.224 353.035 48.1305 350.95 48.1305H342.2C340.116 48.1305 338.286 49.224 337.255 50.8688C337.289 50.8921 337.323 50.9151 337.358 50.9378C338.313 51.5613 339.45 51.9284 340.675 51.9416C340.707 51.942 340.746 51.942 340.842 51.942L340.865 51.942C341.549 51.9458 342.202 52.224 342.68 52.7142L342.695 52.7304L343.16 53.2137C344.17 54.2622 344.851 54.9663 345.427 55.4222C345.979 55.8584 346.3 55.9558 346.575 55.9558C346.85 55.9558 347.171 55.8584 347.723 55.4222C348.3 54.9663 348.981 54.2622 349.99 53.2137L350.455 52.7304L350.471 52.7142C350.948 52.224 351.602 51.9458 352.286 51.942L352.308 51.942C352.326 51.942 352.342 51.942 352.357 51.942C352.419 51.942 352.449 51.9419 352.475 51.9416C353.701 51.9284 354.837 51.5613 355.792 50.9378C355.827 50.9151 355.861 50.8921 355.896 50.8688ZM346.575 30.995C342.749 30.995 339.648 34.0964 339.648 37.9221C339.648 41.7478 342.749 44.8492 346.575 44.8492C350.401 44.8492 353.502 41.7478 353.502 37.9221C353.502 34.0964 350.401 30.995 346.575 30.995Z" fill="#FAFAFA"/>
<g opacity="0.17" clip-path="url(#clip1_0_1)">
<path fill-rule="evenodd" clip-rule="evenodd" d="M24.4 10.6069C30.2173 12.7323 34.7774 14.3983 38.2519 16.112C41.7977 17.8609 44.4855 19.7847 46.3616 22.5735C47.4974 24.2618 48.3604 26.1183 48.9188 28.075C49.8414 31.307 49.5793 34.602 48.6305 38.44C47.7007 42.2009 46.0347 46.7608 43.9094 52.578L43.8045 52.8651C41.6792 58.6822 40.0131 63.2424 38.2994 66.7169C36.5506 70.2627 34.6268 72.9505 31.838 74.8266C30.2311 75.9076 28.4718 76.7414 26.6189 77.3009C26.5792 77.3129 26.5394 77.3247 26.4996 77.3365C26.4571 77.349 26.4145 77.3614 26.3718 77.3737L26.3364 77.3838C23.1044 78.3063 19.8095 78.0443 15.9714 77.0955C12.2105 76.1657 7.65059 74.4997 1.83342 72.3743L1.54638 72.2694C-4.2708 70.1441 -8.83097 68.4781 -12.3055 66.7644C-15.8512 65.0156 -18.539 63.0917 -20.4151 60.303C-20.4669 60.2261 -20.518 60.1489 -20.5685 60.0714C-21.6288 58.4455 -22.4393 56.669 -22.9724 54.8014C-23.8949 51.5694 -23.6329 48.2744 -22.684 44.4364C-21.7542 40.6754 -20.0882 36.1154 -17.9628 30.2981L-17.858 30.0114C-15.7327 24.1941 -14.0667 19.6341 -12.353 16.1595C-10.6041 12.6137 -8.6803 9.92594 -5.89152 8.04983C-4.2032 6.91404 -2.34664 6.05107 -0.389975 5.49259C2.84206 4.57009 6.13701 4.83209 9.97505 5.78095C13.736 6.71076 18.296 8.3768 24.1134 10.5022L24.4 10.6069ZM26.6044 71.9349C27.3782 65.8295 23.8719 59.7815 17.8468 57.5802L-1.15853 50.6366C-7.18365 48.4353 -13.763 50.7984 -17.1073 55.9646C-16.8734 56.4256 -16.6144 56.8742 -16.3313 57.3083C-16.294 57.3656 -16.2562 57.4226 -16.218 57.4794C-15.036 59.2364 -13.2254 60.6703 -10.0679 62.2277C-6.86768 63.8061 -2.56595 65.3814 3.4257 67.5705C9.41735 69.7596 13.7215 71.3284 17.1855 72.1848C20.6032 73.0298 22.9118 73.1008 24.9481 72.5196C25.0178 72.4997 25.0874 72.4792 25.1569 72.4583C25.649 72.3097 26.1322 72.1349 26.6044 71.9349ZM21.9421 16.8897C13.6325 13.8537 4.43514 18.1289 1.39919 26.4385C-1.63675 34.7481 2.63839 43.9455 10.948 46.9814C19.2576 50.0174 28.455 45.7422 31.4909 37.4326C34.5269 29.123 30.2517 19.9256 21.9421 16.8897Z" fill="#FAFAFA"/>
</g>
<defs>
</defs>
</svg>
