<svg width="37" height="75" viewBox="0 0 37 75" fill="none" xmlns="http://www.w3.org/2000/svg">
  <path fill-rule="evenodd" clip-rule="evenodd" d="M28.5216 20.0072C31.4527 21.909 33.3852 23.7459 34.6016 26.0544C35.4165 27.6009 35.9828 29.2661 36.28 30.9887C37.1999 36.3227 34.4406 41.9268 28.922 53.1349C23.4034 64.343 20.6441 69.9471 15.8555 72.4703C14.309 73.2852 12.6438 73.8516 10.9212 74.1487C5.58721 75.0687 -0.0168601 72.3094 -11.225 66.7908C-13.7326 65.5561 -15.9598 64.4595 -17.9346 63.4474L-17.8314 63.2378C-16.5773 60.6912 -15.8133 59.14 -15.3664 57.6975C-12.9102 49.7698 -15.8381 41.1621 -22.6188 36.3763C-23.8526 35.5055 -25.4039 34.7418 -27.9507 33.4881L-28.1603 33.3849C-27.2124 31.3789 -26.116 29.1522 -24.8816 26.6452C-19.363 15.437 -16.603 9.83155 -11.8144 7.30834C-10.2679 6.49344 -8.60271 5.92705 -6.88006 5.62994C-4.30863 5.18645 -1.67443 5.59803 1.62015 6.76162L0.343662 9.35414C-0.875558 11.8304 0.143434 14.8261 2.61965 16.0453C5.09586 17.2645 8.0916 16.2455 9.31082 13.7693L10.7784 10.7887C12.1698 11.4633 13.6604 12.1973 15.2661 12.9879C16.8718 13.7785 18.3625 14.5124 19.7456 15.2039L18.278 18.1845C17.0588 20.6607 18.0777 23.6565 20.554 24.8757C23.0302 26.0949 26.0259 25.0759 27.2451 22.5997L28.5216 20.0072ZM21.381 38.2808C19.7302 37.468 19.0509 35.4709 19.8637 33.82C20.6765 32.1692 22.6737 31.4899 24.3245 32.3027C25.9753 33.1155 26.6546 35.1127 25.8418 36.7635C25.029 38.4143 23.0318 39.0936 21.381 38.2808ZM13.9768 45.7763C13.164 47.4271 13.8433 49.4242 15.4941 50.237C17.1449 51.0498 19.1421 50.3705 19.9549 48.7197C20.7677 47.0689 20.0884 45.0717 18.4375 44.2589C16.7867 43.4461 14.7896 44.1254 13.9768 45.7763ZM6.43575 30.9222C4.78494 30.1094 4.10561 28.1122 4.91843 26.4614C5.73124 24.8106 7.7284 24.1313 9.37921 24.9441C11.03 25.7569 11.7093 27.7541 10.8965 29.4049C10.0837 31.0557 8.08656 31.735 6.43575 30.9222ZM-0.968491 38.4176C-1.78131 40.0684 -1.10198 42.0656 0.548831 42.8784C2.19964 43.6912 4.1968 43.0119 5.00961 41.3611C5.82243 39.7103 5.1431 37.7131 3.49229 36.9003C1.84148 36.0875 -0.155677 36.7668 -0.968491 38.4176ZM-5.33809 54.8346C-6.98889 54.0218 -7.66822 52.0246 -6.85541 50.3738C-6.04259 48.723 -4.04544 48.0437 -2.39463 48.8565C-0.743818 49.6693 -0.0644905 51.6665 -0.877305 53.3173C-1.69012 54.9681 -3.68728 55.6474 -5.33809 54.8346ZM-10.0268 19.1028C-10.8396 20.7536 -10.1603 22.7507 -8.50951 23.5635C-6.8587 24.3763 -4.86154 23.697 -4.04873 22.0462C-3.23592 20.3954 -3.91524 18.3982 -5.56605 17.5854C-7.21686 16.7726 -9.21402 17.4519 -10.0268 19.1028ZM-14.3964 35.5197C-16.0472 34.7069 -16.7266 32.7098 -15.9137 31.059C-15.1009 29.4081 -13.1038 28.7288 -11.453 29.5416C-9.80216 30.3544 -9.12283 32.3516 -9.93565 34.0024C-10.7485 35.6532 -12.7456 36.3326 -14.3964 35.5197ZM8.08985 57.7325C7.27704 59.3833 7.95636 61.3804 9.60717 62.1932C11.258 63.006 13.2551 62.3267 14.068 60.6759C14.8808 59.0251 14.2014 57.0279 12.5506 56.2151C10.8998 55.4023 8.90266 56.0816 8.08985 57.7325Z" fill="#FAFAFA" fill-opacity="0.48"/>
  <path d="M-30.2046 37.9489C-27.4837 39.289 -26.3505 39.8594 -25.5006 40.4593C-20.4888 43.9967 -18.3247 50.3589 -20.1401 56.2185C-20.448 57.2122 -20.9984 58.3553 -22.3378 61.0765C-26.502 58.6756 -29.0692 56.5543 -30.5604 53.7243C-31.3753 52.1778 -31.9417 50.5126 -32.2388 48.7899C-32.7825 45.6376 -32.0412 42.3909 -30.2046 37.9489Z" fill="#FAFAFA" fill-opacity="0.48"/>
  <path d="M24.9349 10.3212C25.5446 9.08306 27.0424 8.57356 28.2805 9.18317C29.5186 9.79278 30.0281 11.2907 29.4185 12.5288L25.0033 21.4959C24.3937 22.734 22.8959 23.2435 21.6578 22.6339C20.4196 22.0243 19.9102 20.5264 20.5198 19.2883L24.9349 10.3212Z" fill="#FAFAFA" fill-opacity="0.48"/>
  <path d="M7.00064 1.49079C7.61025 0.252681 9.10812 -0.256815 10.3462 0.352795C11.5843 0.962406 12.0938 2.46028 11.4842 3.69838L7.06903 12.6655C6.45942 13.9036 4.96155 14.4131 3.72344 13.8035C2.48534 13.1939 1.97584 11.696 2.58545 10.4579L7.00064 1.49079Z" fill="#FAFAFA" fill-opacity="0.48"/>
</svg>

