<svg width="25" height="25" viewBox="0 0 25 25" fill="none" xmlns="http://www.w3.org/2000/svg">
<path fill-rule="evenodd" clip-rule="evenodd" d="M12.4812 4.74994C9.85785 4.74994 7.7312 6.87659 7.7312 9.49994C7.7312 12.1233 9.85785 14.2499 12.4812 14.2499C15.1046 14.2499 17.2312 12.1233 17.2312 9.49994C17.2312 6.87659 15.1046 4.74994 12.4812 4.74994ZM9.2312 9.49994C9.2312 7.70501 10.6863 6.24994 12.4812 6.24994C14.2761 6.24994 15.7312 7.70501 15.7312 9.49994C15.7312 11.2949 14.2761 12.7499 12.4812 12.7499C10.6863 12.7499 9.2312 11.2949 9.2312 9.49994Z" fill="#7B8694"/>
<path fill-rule="evenodd" clip-rule="evenodd" d="M16.9447 2.87367C15.8026 2.74992 14.363 2.74993 12.5265 2.74994H12.436C10.5994 2.74993 9.15981 2.74992 8.01768 2.87367C6.85214 2.99995 5.90776 3.26226 5.10144 3.84809C4.61329 4.20275 4.18401 4.63203 3.82935 5.12017C3.24353 5.9265 2.98121 6.87088 2.85493 8.03642C2.73119 9.17855 2.73119 10.6182 2.7312 12.4547V12.5452C2.73119 14.3817 2.73119 15.8213 2.85493 16.9635C2.98121 18.129 3.24353 19.0734 3.82935 19.8797C4.16787 20.3456 4.57438 20.7579 5.03516 21.1029C5.05712 21.1193 5.07921 21.1356 5.10144 21.1518C5.90776 21.7376 6.85214 21.9999 8.01768 22.1262C9.15979 22.25 10.5994 22.2499 12.4359 22.2499H12.5265C14.363 22.2499 15.8026 22.25 16.9447 22.1262C18.1103 21.9999 19.0546 21.7376 19.861 21.1518C19.8639 21.1496 19.8669 21.1475 19.8698 21.1454C19.8904 21.1303 19.9108 21.1152 19.9312 21.0999C20.3904 20.7556 20.7955 20.3443 21.133 19.8797C21.7189 19.0734 21.9812 18.129 22.1075 16.9635C22.2312 15.8213 22.2312 14.3818 22.2312 12.5453V12.4547C22.2312 10.6182 22.2312 9.17853 22.1075 8.03642C21.9812 6.87088 21.7189 5.9265 21.133 5.12017C20.7784 4.63203 20.3491 4.20275 19.861 3.84809C19.0546 3.26226 18.1103 2.99995 16.9447 2.87367ZM5.98311 5.06162C6.49112 4.69253 7.14134 4.47739 8.17925 4.36494C9.23119 4.25097 10.5896 4.24994 12.4812 4.24994C14.3728 4.24994 15.7312 4.25097 16.7832 4.36494C17.8211 4.47739 18.4713 4.69253 18.9793 5.06162C19.3401 5.32376 19.6574 5.64105 19.9195 6.00185C20.2886 6.50986 20.5037 7.16007 20.6162 8.19798C20.7302 9.24993 20.7312 10.6084 20.7312 12.4999C20.7312 14.3915 20.7302 15.7499 20.6162 16.8019C20.5086 17.7953 20.3069 18.4335 19.9662 18.9319C19.3183 17.0788 17.5552 15.7499 15.4812 15.7499H9.4812C7.4073 15.7499 5.64402 17.0789 4.99622 18.9318C4.65552 18.4335 4.45383 17.7953 4.3462 16.8019C4.23223 15.7499 4.2312 14.3915 4.2312 12.4999C4.2312 10.6084 4.23223 9.24993 4.3462 8.19798C4.45865 7.16007 4.67379 6.50986 5.04288 6.00185C5.30502 5.64105 5.62231 5.32376 5.98311 5.06162ZM15.4812 17.2499C17.1449 17.2499 18.5172 18.5005 18.7084 20.1124C18.2405 20.3771 17.6457 20.5415 16.7832 20.6349C15.7312 20.7489 14.3728 20.7499 12.4812 20.7499C10.5896 20.7499 9.23119 20.7489 8.17925 20.6349C7.31673 20.5415 6.72194 20.3771 6.25402 20.1124C6.44536 18.5004 7.81742 17.2499 9.4812 17.2499H15.4812Z" fill="#7B8694"/>
</svg>
