<svg width="25" height="25" viewBox="0 0 25 25" fill="none" xmlns="http://www.w3.org/2000/svg">
<path d="M18.9644 18.9989L18.3408 18.5822L18.9644 18.9989ZM6.48107 6.51552L6.0644 5.89191L6.48107 6.51552ZM9.4976 5.22006L9.33229 4.4885L9.4976 5.22006ZM20.2599 15.9824L19.5283 15.817L20.2599 15.9824ZM17.9254 2.68382L17.6383 3.37673L17.9254 2.68382ZM22.7961 7.55459L23.489 7.26758L22.7961 7.55459ZM19.9469 10.9987V11.7487V10.9987ZM18.9812 10.9987V10.2487V10.9987ZM14.4812 6.49874H13.7312H14.4812ZM14.4812 5.53301H15.2312H14.4812ZM19.5283 15.817C19.3065 16.7988 18.9057 17.7368 18.3408 18.5822L19.588 19.4156C20.2556 18.4164 20.7293 17.3079 20.9914 16.1477L19.5283 15.817ZM18.3408 18.5822C17.4343 19.9389 16.1458 20.9963 14.6383 21.6207L15.2124 23.0066C16.9939 22.2686 18.5167 21.0189 19.588 19.4156L18.3408 18.5822ZM14.6383 21.6207C13.1309 22.2452 11.4721 22.4085 9.87171 22.0902L9.57907 23.5614C11.4704 23.9376 13.4308 23.7445 15.2124 23.0066L14.6383 21.6207ZM9.87171 22.0902C8.27137 21.7719 6.80136 20.9862 5.64757 19.8324L4.58691 20.893C5.95048 22.2566 7.68776 23.1852 9.57907 23.5614L9.87171 22.0902ZM5.64757 19.8324C4.49379 18.6786 3.70805 17.2086 3.38973 15.6082L1.91855 15.9009C2.29475 17.7922 3.22335 19.5295 4.58691 20.893L5.64757 19.8324ZM3.38973 15.6082C3.0714 14.0079 3.23478 12.3491 3.8592 10.8416L2.47338 10.2676C1.73543 12.0492 1.54234 14.0096 1.91855 15.9009L3.38973 15.6082ZM3.8592 10.8416C4.48362 9.33411 5.54105 8.04564 6.89775 7.13912L6.0644 5.89191C4.46102 6.96326 3.21133 8.486 2.47338 10.2676L3.8592 10.8416ZM6.89775 7.13912C7.74318 6.57422 8.68116 6.17345 9.6629 5.95161L9.33229 4.4885C8.17208 4.75067 7.06354 5.2243 6.0644 5.89191L6.89775 7.13912ZM10.7312 6.99874V8.99874H12.2312V6.99874H10.7312ZM16.4812 14.7487H18.4812V13.2487H16.4812V14.7487ZM10.7312 8.99874C10.7312 12.1744 13.3056 14.7487 16.4812 14.7487V13.2487C14.134 13.2487 12.2312 11.346 12.2312 8.99874H10.7312ZM9.6629 5.95161C10.1555 5.8403 10.7312 6.24896 10.7312 6.99874H12.2312C12.2312 5.53939 10.9945 4.1129 9.33229 4.4885L9.6629 5.95161ZM20.9914 16.1477C21.367 14.4854 19.9406 13.2487 18.4812 13.2487V14.7487C19.231 14.7487 19.6396 15.3244 19.5283 15.817L20.9914 16.1477ZM17.6383 3.37673C18.6393 3.79134 19.5488 4.39903 20.3148 5.16511L21.3755 4.10445C20.4701 3.19908 19.3953 2.4809 18.2124 1.99092L17.6383 3.37673ZM20.3148 5.16511C21.0809 5.93119 21.6886 6.84067 22.1032 7.8416L23.489 7.26758C22.999 6.08465 22.2809 5.00982 21.3755 4.10445L20.3148 5.16511ZM19.9469 10.2487H18.9812V11.7487H19.9469V10.2487ZM15.2312 6.49874V5.53301H13.7312V6.49874H15.2312ZM22.1032 7.8416C22.3549 8.44927 22.2154 9.01065 21.8216 9.45629C21.4109 9.92109 20.7212 10.2487 19.9469 10.2487V11.7487C21.1246 11.7487 22.233 11.256 22.9456 10.4496C23.6752 9.62395 23.9843 8.46325 23.489 7.26758L22.1032 7.8416ZM18.9812 10.2487C16.9101 10.2487 15.2312 8.56981 15.2312 6.49874H13.7312C13.7312 9.39824 16.0817 11.7487 18.9812 11.7487V10.2487ZM18.2124 1.99092C17.0167 1.49565 15.856 1.80477 15.0304 2.53432C14.224 3.24694 13.7312 4.35536 13.7312 5.53301H15.2312C15.2312 4.75874 15.5589 4.06908 16.0237 3.65834C16.4693 3.26455 17.0307 3.12503 17.6383 3.37673L18.2124 1.99092Z" fill="#7B8694"/>
</svg>
