<svg width="26" height="24" viewBox="0 0 26 24" fill="none" xmlns="http://www.w3.org/2000/svg">
<path fill-rule="evenodd" clip-rule="evenodd" d="M8.85282 3.27968C8.53975 3.2589 8.15841 3.2589 7.70161 3.25891H7.64969C7.19289 3.2589 6.81153 3.2589 6.49846 3.27968C6.17255 3.30132 5.86471 3.34796 5.56625 3.46824C4.8737 3.74735 4.32348 4.28271 4.03662 4.95653C3.91299 5.24692 3.86506 5.54645 3.84282 5.86355C3.82146 6.16816 3.82147 6.53919 3.82147 6.98365V7.03416C3.82147 7.47862 3.82146 7.84967 3.84282 8.15428C3.86506 8.47138 3.91299 8.7709 4.03662 9.06129C4.32348 9.73512 4.8737 10.2705 5.56625 10.5496C5.86471 10.6699 6.17255 10.7165 6.49846 10.7381C6.81153 10.7589 7.19288 10.7589 7.64968 10.7589H7.7016C8.1584 10.7589 8.53975 10.7589 8.85282 10.7381C9.17873 10.7165 9.48657 10.6699 9.78503 10.5496C10.4776 10.2705 11.0278 9.73512 11.3147 9.06129C11.4383 8.7709 11.4862 8.47138 11.5085 8.15428C11.5298 7.84967 11.5298 7.47863 11.5298 7.03417V6.98365C11.5298 6.5392 11.5298 6.16816 11.5085 5.86355C11.4862 5.54645 11.4383 5.24692 11.3147 4.95653C11.0278 4.28271 10.4776 3.74735 9.78503 3.46824C9.48657 3.34796 9.17873 3.30132 8.85282 3.27968ZM6.15622 4.85406C6.23552 4.8221 6.35599 4.79263 6.6034 4.7762C6.85774 4.75932 7.18621 4.75891 7.67564 4.75891C8.16507 4.75891 8.49354 4.75932 8.74788 4.7762C8.99529 4.79263 9.11576 4.8221 9.19506 4.85406C9.50985 4.98093 9.75995 5.22427 9.89035 5.53056C9.92319 5.60771 9.95349 5.72493 9.97037 5.96565C9.98772 6.21312 9.98814 6.53271 9.98814 7.00891C9.98814 7.48512 9.98772 7.80471 9.97037 8.05217C9.95349 8.2929 9.92319 8.41011 9.89035 8.48727C9.75995 8.79355 9.50985 9.03689 9.19506 9.16376C9.11576 9.19572 8.99529 9.2252 8.74788 9.24162C8.49354 9.25851 8.16507 9.25891 7.67564 9.25891C7.18621 9.25891 6.85774 9.25851 6.6034 9.24162C6.35599 9.2252 6.23552 9.19572 6.15622 9.16376C5.84143 9.03689 5.59132 8.79355 5.46093 8.48727C5.42809 8.41011 5.39779 8.2929 5.38091 8.05217C5.36356 7.80471 5.36314 7.48512 5.36314 7.00891C5.36314 6.53271 5.36356 6.21312 5.38091 5.96565C5.39779 5.72493 5.42809 5.60771 5.46093 5.53056C5.59132 5.22427 5.84143 4.98093 6.15622 4.85406Z" fill="#7B8694"/>
<path d="M18.7243 4.00891C18.7243 3.5947 18.3791 3.25891 17.9534 3.25891C17.5277 3.25891 17.1826 3.5947 17.1826 4.00891V6.25891H14.8701C14.4444 6.25891 14.0993 6.5947 14.0993 7.00891C14.0993 7.42313 14.4444 7.75891 14.8701 7.75891H17.1826V10.0089C17.1826 10.4231 17.5277 10.7589 17.9534 10.7589C18.3791 10.7589 18.7243 10.4231 18.7243 10.0089V7.75891H21.0368C21.4625 7.75891 21.8076 7.42313 21.8076 7.00891C21.8076 6.5947 21.4625 6.25891 21.0368 6.25891H18.7243V4.00891Z" fill="#7B8694"/>
<path fill-rule="evenodd" clip-rule="evenodd" d="M8.85282 13.2797C8.53975 13.2589 8.1584 13.2589 7.7016 13.2589H7.64968C7.19288 13.2589 6.81153 13.2589 6.49846 13.2797C6.17255 13.3013 5.86471 13.348 5.56625 13.4682C4.8737 13.7474 4.32348 14.2827 4.03662 14.9565C3.91299 15.2469 3.86506 15.5464 3.84282 15.8635C3.82146 16.1682 3.82147 16.5392 3.82147 16.9836V17.0342C3.82147 17.4786 3.82146 17.8497 3.84282 18.1543C3.86506 18.4714 3.91299 18.7709 4.03662 19.0613C4.32348 19.7351 4.8737 20.2705 5.56625 20.5496C5.86471 20.6699 6.17255 20.7165 6.49846 20.7381C6.81153 20.7589 7.19287 20.7589 7.64968 20.7589H7.7016C8.1584 20.7589 8.53975 20.7589 8.85282 20.7381C9.17873 20.7165 9.48657 20.6699 9.78503 20.5496C10.4776 20.2705 11.0278 19.7351 11.3147 19.0613C11.4383 18.7709 11.4862 18.4714 11.5085 18.1543C11.5298 17.8497 11.5298 17.4786 11.5298 17.0342V16.9837C11.5298 16.5392 11.5298 16.1682 11.5085 15.8635C11.4862 15.5464 11.4383 15.2469 11.3147 14.9565C11.0278 14.2827 10.4776 13.7474 9.78503 13.4682C9.48657 13.348 9.17873 13.3013 8.85282 13.2797ZM6.15622 14.8541C6.23552 14.8221 6.35599 14.7926 6.6034 14.7762C6.85774 14.7593 7.18621 14.7589 7.67564 14.7589C8.16507 14.7589 8.49354 14.7593 8.74788 14.7762C8.99529 14.7926 9.11576 14.8221 9.19506 14.8541C9.50985 14.9809 9.75995 15.2243 9.89035 15.5306C9.92319 15.6077 9.95349 15.7249 9.97037 15.9657C9.98772 16.2131 9.98814 16.5327 9.98814 17.0089C9.98814 17.4851 9.98772 17.8047 9.97037 18.0522C9.95349 18.2929 9.92319 18.4101 9.89035 18.4873C9.75995 18.7936 9.50985 19.0369 9.19506 19.1638C9.11576 19.1957 8.99529 19.2252 8.74788 19.2416C8.49354 19.2585 8.16507 19.2589 7.67564 19.2589C7.18621 19.2589 6.85774 19.2585 6.6034 19.2416C6.35599 19.2252 6.23552 19.1957 6.15622 19.1638C5.84143 19.0369 5.59133 18.7936 5.46093 18.4873C5.42809 18.4101 5.39779 18.2929 5.38091 18.0522C5.36356 17.8047 5.36314 17.4851 5.36314 17.0089C5.36314 16.5327 5.36356 16.2131 5.38091 15.9657C5.39779 15.7249 5.42809 15.6077 5.46093 15.5306C5.59133 15.2243 5.84143 14.9809 6.15622 14.8541Z" fill="#7B8694"/>
<path fill-rule="evenodd" clip-rule="evenodd" d="M19.1306 13.2797C18.8175 13.2589 18.4362 13.2589 17.9794 13.2589H17.9275C17.4707 13.2589 17.0893 13.2589 16.7762 13.2797C16.4503 13.3013 16.1425 13.348 15.844 13.4682C15.1515 13.7474 14.6013 14.2827 14.3144 14.9565C14.1908 15.2469 14.1428 15.5464 14.1206 15.8635C14.0992 16.1682 14.0992 16.5392 14.0993 16.9837V17.0342C14.0992 17.4786 14.0992 17.8497 14.1206 18.1543C14.1428 18.4714 14.1908 18.7709 14.3144 19.0613C14.6013 19.7351 15.1515 20.2705 15.844 20.5496C16.1425 20.6699 16.4503 20.7165 16.7762 20.7381C17.0893 20.7589 17.4707 20.7589 17.9275 20.7589H17.9794C18.4362 20.7589 18.8175 20.7589 19.1306 20.7381C19.4565 20.7165 19.7644 20.6699 20.0628 20.5496C20.7554 20.2705 21.3056 19.7351 21.5924 19.0613C21.7161 18.7709 21.764 18.4714 21.7862 18.1543C21.8076 17.8497 21.8076 17.4786 21.8076 17.0342V16.9837C21.8076 16.5392 21.8076 16.1682 21.7862 15.8635C21.764 15.5464 21.7161 15.2469 21.5924 14.9565C21.3056 14.2827 20.7554 13.7474 20.0628 13.4682C19.7644 13.348 19.4565 13.3013 19.1306 13.2797ZM16.434 14.8541C16.5133 14.8221 16.6338 14.7926 16.8812 14.7762C17.1355 14.7593 17.464 14.7589 17.9534 14.7589C18.4428 14.7589 18.7713 14.7593 19.0257 14.7762C19.2731 14.7926 19.3935 14.8221 19.4728 14.8541C19.7876 14.9809 20.0377 15.2243 20.1681 15.5306C20.201 15.6077 20.2313 15.7249 20.2481 15.9657C20.2655 16.2131 20.2659 16.5327 20.2659 17.0089C20.2659 17.4851 20.2655 17.8047 20.2481 18.0522C20.2313 18.2929 20.201 18.4101 20.1681 18.4873C20.0377 18.7936 19.7876 19.0369 19.4728 19.1638C19.3935 19.1957 19.2731 19.2252 19.0257 19.2416C18.7713 19.2585 18.4428 19.2589 17.9534 19.2589C17.464 19.2589 17.1355 19.2585 16.8812 19.2416C16.6338 19.2252 16.5133 19.1957 16.434 19.1638C16.1192 19.0369 15.8691 18.7936 15.7387 18.4873C15.7059 18.4101 15.6756 18.2929 15.6587 18.0522C15.6413 17.8047 15.6409 17.4851 15.6409 17.0089C15.6409 16.5327 15.6413 16.2131 15.6587 15.9657C15.6756 15.7249 15.7059 15.6077 15.7387 15.5306C15.8691 15.2243 16.1192 14.9809 16.434 14.8541Z" fill="#7B8694"/>
</svg>
