<svg width="25" height="25" viewBox="0 0 25 25" fill="none" xmlns="http://www.w3.org/2000/svg">
<path d="M15.6867 4.61246C16.0909 4.20678 16.5394 3.87049 17.1126 3.77917C17.2347 3.75972 17.3578 3.74994 17.4812 3.74994C17.6046 3.74994 17.7278 3.75972 17.8499 3.77917C18.4231 3.87049 18.8716 4.20679 19.2757 4.61246C19.6695 5.00777 20.1095 5.56268 20.6426 6.23516L22.0689 8.03397C22.3263 8.35854 22.2718 8.83028 21.9472 9.08762C21.6226 9.34497 21.1509 9.29048 20.8935 8.96591L19.4957 7.20294C18.9375 6.49891 18.5539 6.01691 18.2312 5.68946L18.2312 18.4999C18.2312 18.9142 17.8954 19.2499 17.4812 19.2499C17.067 19.2499 16.7312 18.9142 16.7312 18.4999L16.7312 5.68946C16.4086 6.01691 16.025 6.49891 15.4668 7.20294L14.0689 8.96591C13.8116 9.29048 13.3398 9.34497 13.0153 9.08762C12.6907 8.83027 12.6362 8.35854 12.8935 8.03397L14.3198 6.23515C14.853 5.56268 15.293 5.00777 15.6867 4.61246Z" fill="#7B8694"/>
<path d="M8.23123 5.49994C8.23123 5.08573 7.89544 4.74994 7.48123 4.74994C7.06702 4.74994 6.73123 5.08573 6.73123 5.49994L6.73123 18.3104C6.40857 17.983 6.02498 17.501 5.46676 16.7969L4.06891 15.034C3.81157 14.7094 3.33983 14.6549 3.01526 14.9123C2.69069 15.1696 2.6362 15.6413 2.89355 15.9659L4.3198 17.7647C4.85298 18.4372 5.29295 18.9921 5.68674 19.3874C6.09086 19.7931 6.53939 20.1294 7.11256 20.2207C7.23467 20.2402 7.35784 20.2499 7.48123 20.2499C7.60462 20.2499 7.72779 20.2402 7.8499 20.2207C8.42307 20.1294 8.87161 19.7931 9.27572 19.3874C9.66951 18.9921 10.1095 18.4372 10.6427 17.7647L12.0689 15.9659C12.3263 15.6413 12.2718 15.1696 11.9472 14.9123C11.6226 14.6549 11.1509 14.7094 10.8935 15.034L9.4957 16.7969C8.93748 17.501 8.55389 17.983 8.23123 18.3104L8.23123 5.49994Z" fill="#7B8694"/>
</svg>
