<svg width="25" height="25" viewBox="0 0 25 25" fill="none" xmlns="http://www.w3.org/2000/svg">
<path d="M10.4812 21.2516L10.4812 20.5016L10.4812 21.2516ZM9.4812 21.2516L9.4812 22.0016L9.4812 21.2516ZM3.4812 15.2516L2.7312 15.2517L3.4812 15.2516ZM3.4812 9.25165L4.2312 9.25165L3.4812 9.25165ZM9.4812 3.25165L9.4812 2.50165L9.4812 3.25165ZM10.4812 3.25165L10.4812 4.00165L10.4812 3.25165ZM3.54276 7.46948L2.80199 7.35215L2.80199 7.35215L3.54276 7.46948ZM7.69903 3.31321L7.81635 4.05397L7.69903 3.31321ZM7.69903 21.1901L7.5817 21.9309L7.5817 21.9309L7.69903 21.1901ZM3.54276 17.0338L2.80199 17.1511L2.80199 17.1511L3.54276 17.0338ZM13.9316 20.8517C14.2628 20.6029 14.3296 20.1328 14.0809 19.8016C13.8321 19.4704 13.362 19.4036 13.0308 19.6523L13.9316 20.8517ZM13.0308 4.85096C13.362 5.09972 13.8321 5.03291 14.0809 4.70172C14.3296 4.37052 14.2628 3.90037 13.9316 3.65161L13.0308 4.85096ZM21.4812 13.0016C21.8954 13.0016 22.2312 12.6659 22.2312 12.2516C22.2312 11.8374 21.8954 11.5016 21.4812 11.5016L21.4812 13.0016ZM8.4812 12.2516L8.4812 13.0016L8.4812 12.2516ZM11.9472 8.83933C12.2717 8.58198 12.3262 8.11025 12.0689 7.78568C11.8115 7.46111 11.3398 7.40662 11.0152 7.66396L11.9472 8.83933ZM9.71823 9.6495L10.1842 10.2372L9.71823 9.6495ZM9.71823 14.8538L10.1842 14.2661L9.71823 14.8538ZM11.0152 16.8393C11.3398 17.0967 11.8115 17.0422 12.0689 16.7176C12.3262 16.393 12.2717 15.9213 11.9472 15.664L11.0152 16.8393ZM7.50109 12.001L6.76043 11.883L6.76043 11.883L7.50109 12.001ZM7.50109 12.5023L6.76043 12.6203L6.76043 12.6203L7.50109 12.5023ZM10.4812 20.5016L9.4812 20.5016L9.4812 22.0016L10.4812 22.0016L10.4812 20.5016ZM4.2312 15.2516L4.2312 9.25165L2.7312 9.25165L2.7312 15.2517L4.2312 15.2516ZM9.4812 4.00165L10.4812 4.00165L10.4812 2.50165L9.4812 2.50165L9.4812 4.00165ZM4.2312 9.25165C4.2312 8.29398 4.23353 7.90247 4.28352 7.5868L2.80199 7.35215C2.72887 7.81381 2.7312 8.3513 2.7312 9.25165L4.2312 9.25165ZM9.4812 2.50165C8.58085 2.50165 8.04336 2.49932 7.5817 2.57244L7.81635 4.05397C8.13202 4.00398 8.52353 4.00165 9.4812 4.00165L9.4812 2.50165ZM4.28352 7.5868C4.57155 5.76826 5.99781 4.342 7.81635 4.05397L7.5817 2.57244C5.12132 2.96213 3.19168 4.89177 2.80199 7.35215L4.28352 7.5868ZM9.4812 20.5016C8.52354 20.5016 8.13202 20.4993 7.81635 20.4493L7.5817 21.9309C8.04336 22.004 8.58086 22.0016 9.4812 22.0016L9.4812 20.5016ZM2.7312 15.2517C2.7312 16.152 2.72887 16.6895 2.80199 17.1511L4.28353 16.9165C4.23353 16.6008 4.2312 16.2093 4.2312 15.2516L2.7312 15.2517ZM7.81635 20.4493C5.99781 20.1613 4.57155 18.735 4.28353 16.9165L2.80199 17.1511C3.19168 19.6115 5.12132 21.5412 7.5817 21.9309L7.81635 20.4493ZM10.4812 22.0016C11.7748 22.0016 12.9706 21.5736 13.9316 20.8517L13.0308 19.6523C12.3205 20.1858 11.4388 20.5016 10.4812 20.5016L10.4812 22.0016ZM10.4812 4.00165C11.4388 4.00165 12.3205 4.31748 13.0308 4.85096L13.9316 3.65161C12.9706 2.92971 11.7748 2.50165 10.4812 2.50165L10.4812 4.00165ZM21.4812 11.5016L8.4812 11.5016L8.4812 13.0016L21.4812 13.0016L21.4812 11.5016ZM11.0152 7.66396L9.25226 9.06181L10.1842 10.2372L11.9472 8.83933L11.0152 7.66396ZM9.25226 15.4415L11.0152 16.8393L11.9472 15.664L10.1842 14.2661L9.25226 15.4415ZM9.25226 9.06181C8.56365 9.60781 7.99604 10.0564 7.59372 10.4572C7.18805 10.8613 6.85175 11.3098 6.76043 11.883L8.24175 12.119C8.25867 12.0128 8.32798 11.843 8.65233 11.5199C8.98004 11.1934 9.46688 10.8059 10.1842 10.2372L9.25226 9.06181ZM10.1842 14.2661C9.46688 13.6974 8.98004 13.3099 8.65233 12.9834C8.32798 12.6603 8.25867 12.4905 8.24175 12.3843L6.76043 12.6203C6.85175 13.1935 7.18805 13.642 7.59372 14.0461C7.99604 14.4469 8.56365 14.8955 9.25226 15.4415L10.1842 14.2661ZM6.76043 11.883C6.74098 12.0051 6.7312 12.1283 6.7312 12.2516L8.2312 12.2516C8.2312 12.2076 8.23468 12.1633 8.24175 12.119L6.76043 11.883ZM6.7312 12.2516C6.7312 12.375 6.74098 12.4982 6.76043 12.6203L8.24175 12.3843C8.23468 12.34 8.2312 12.2957 8.2312 12.2516L6.7312 12.2516ZM8.4812 11.5016L7.4812 11.5016L7.4812 13.0016L8.4812 13.0016L8.4812 11.5016Z" fill="#7B8694"/>
</svg>
