<svg width="25" height="25" viewBox="0 0 25 25" fill="none" xmlns="http://www.w3.org/2000/svg">
<g clip-path="url(#clip0_1005_3351)">
<path d="M6.41308 5.63807L6.23072 6.36556L6.41308 5.63807ZM9.78764 3.68977L9.06643 3.48395L9.78764 3.68977ZM3.71957 10.3034L4.25842 9.78169L3.71957 10.3034ZM3.71957 14.2L3.18072 13.6783H3.18072L3.71957 14.2ZM6.41308 18.8653L6.59543 19.5928L6.41308 18.8653ZM9.78764 20.8136L9.06643 21.0194L9.78764 20.8136ZM15.1747 20.8136L15.8959 21.0194L15.1747 20.8136ZM18.5492 18.8653L18.7316 18.1378L18.5492 18.8653ZM21.2427 14.2L20.7039 14.7216V14.7216L21.2427 14.2ZM21.2427 10.3034L20.7039 9.78169V9.78169L21.2427 10.3034ZM18.5492 5.63807L18.3669 4.91058L18.5492 5.63807ZM15.1747 3.68977L15.8959 3.48394L15.1747 3.68977ZM6.23072 6.36556C8.08963 6.83152 9.98292 5.73843 10.5088 3.89559L9.06643 3.48395C8.76266 4.54835 7.66912 5.17971 6.59543 4.91058L6.23072 6.36556ZM4.25842 9.78169C2.82316 8.29916 4.22918 5.86385 6.23072 6.36556L6.59543 4.91058C3.1301 4.04195 0.6958 8.25828 3.18072 10.825L4.25842 9.78169ZM4.25842 14.7216C5.5914 13.3448 5.5914 11.1586 4.25842 9.78169L3.18072 10.825C3.95064 11.6203 3.95064 12.883 3.18072 13.6783L4.25842 14.7216ZM6.23072 18.1378C4.22918 18.6395 2.82316 16.2042 4.25842 14.7216L3.18072 13.6783C0.695799 16.245 3.1301 20.4614 6.59543 19.5928L6.23072 18.1378ZM10.5088 20.6077C9.98292 18.7649 8.08963 17.6718 6.23072 18.1378L6.59543 19.5928C7.66912 19.3236 8.76266 19.955 9.06643 21.0194L10.5088 20.6077ZM14.4535 20.6077C13.8872 22.592 11.0751 22.592 10.5088 20.6077L9.06643 21.0194C10.0468 24.4548 14.9154 24.4548 15.8959 21.0194L14.4535 20.6077ZM18.7316 18.1378C16.8727 17.6718 14.9794 18.7649 14.4535 20.6077L15.8959 21.0194C16.1996 19.955 17.2932 19.3236 18.3669 19.5928L18.7316 18.1378ZM20.7039 14.7216C22.1391 16.2042 20.7331 18.6395 18.7316 18.1378L18.3669 19.5928C21.8322 20.4614 24.2665 16.245 21.7816 13.6783L20.7039 14.7216ZM20.7039 9.78169C19.3709 11.1586 19.3709 13.3448 20.7039 14.7216L21.7816 13.6783C21.0117 12.883 21.0117 11.6203 21.7816 10.825L20.7039 9.78169ZM18.7316 6.36556C20.7331 5.86385 22.1391 8.29916 20.7039 9.78169L21.7816 10.825C24.2665 8.25828 21.8322 4.04195 18.3669 4.91058L18.7316 6.36556ZM14.4535 3.89559C14.9794 5.73843 16.8727 6.83152 18.7316 6.36556L18.3669 4.91058C17.2932 5.17971 16.1996 4.54835 15.8959 3.48394L14.4535 3.89559ZM15.8959 3.48394C14.9154 0.0485637 10.0468 0.0485649 9.06643 3.48395L10.5088 3.89559C11.0751 1.91135 13.8872 1.91135 14.4535 3.89559L15.8959 3.48394ZM8.73115 12.2517C8.73115 14.3227 10.4101 16.0017 12.4811 16.0017V14.5017C11.2385 14.5017 10.2311 13.4943 10.2311 12.2517H8.73115ZM12.4811 16.0017C14.5522 16.0017 16.2311 14.3227 16.2311 12.2517H14.7311C14.7311 13.4943 13.7238 14.5017 12.4811 14.5017V16.0017ZM16.2311 12.2517C16.2311 10.1806 14.5522 8.50166 12.4811 8.50166V10.0017C13.7238 10.0017 14.7311 11.009 14.7311 12.2517H16.2311ZM12.4811 8.50166C10.4101 8.50166 8.73115 10.1806 8.73115 12.2517H10.2311C10.2311 11.009 11.2385 10.0017 12.4811 10.0017V8.50166Z" fill="#9FA4BA"/>
</g>
<defs>
<clipPath id="clip0_1005_3351">
<rect width="24" height="24" fill="white" transform="translate(0.481201 0.251648)"/>
</clipPath>
</defs>
</svg>
