<svg width="25" height="25" viewBox="0 0 25 25" fill="none" xmlns="http://www.w3.org/2000/svg">
<path d="M18.1545 10.1488C18.3369 9.77687 18.1833 9.32752 17.8114 9.1451C17.4395 8.96268 16.9902 9.11627 16.8078 9.48815L15.3474 12.4652C14.8948 13.388 13.5644 13.3429 13.1753 12.3916C12.2961 10.2426 9.29067 10.1408 8.2681 12.2254L6.80776 15.2024C6.62534 15.5743 6.77893 16.0237 7.15082 16.2061C7.5227 16.3885 7.97205 16.2349 8.15447 15.863L9.6148 12.886C10.0674 11.9632 11.3978 12.0083 11.787 12.9596C12.6661 15.1086 15.6716 15.2104 16.6941 13.1258L18.1545 10.1488Z" fill="#7B8694"/>
<path fill-rule="evenodd" clip-rule="evenodd" d="M12.7662 1.70617C12.5763 1.69674 12.386 1.69674 12.196 1.70617C11.4626 1.74258 10.7875 1.95567 10.0348 2.30495C9.30207 2.64497 8.45064 3.13656 7.37347 3.75847L7.31247 3.79369C6.2353 4.41559 5.38386 4.90716 4.72302 5.3717C4.04421 5.84889 3.52209 6.32705 3.12388 6.94395C3.02073 7.10376 2.92557 7.26858 2.83875 7.43781C2.5036 8.09113 2.35056 8.78238 2.27671 9.60884C2.20482 10.4134 2.20483 11.3966 2.20483 12.6404V12.7108C2.20483 13.9546 2.20482 14.9378 2.27671 15.7424C2.35056 16.5688 2.5036 17.2601 2.83875 17.9134C2.92557 18.0826 3.02073 18.2474 3.12388 18.4072C3.52209 19.0241 4.04422 19.5023 4.72303 19.9795C5.38384 20.444 6.23524 20.9356 7.31236 21.5574L7.37344 21.5927C8.45059 22.2146 9.30209 22.7062 10.0348 23.0462C10.7875 23.3955 11.4626 23.6086 12.196 23.645C12.386 23.6544 12.5763 23.6544 12.7662 23.645C13.4996 23.6086 14.1748 23.3955 14.9274 23.0462C15.6602 22.7062 16.5116 22.2146 17.5888 21.5927L17.6497 21.5575C18.7269 20.9356 19.5784 20.444 20.2392 19.9795C20.918 19.5023 21.4401 19.0241 21.8384 18.4072C21.9415 18.2474 22.0367 18.0826 22.1235 17.9134C22.4586 17.2601 22.6117 16.5688 22.6855 15.7423C22.7574 14.9378 22.7574 13.9547 22.7574 12.7109V12.6404C22.7574 11.3966 22.7574 10.4134 22.6855 9.60884C22.6117 8.78238 22.4586 8.09112 22.1235 7.43781C22.0367 7.26858 21.9415 7.10375 21.8383 6.94395C21.4401 6.32705 20.918 5.84888 20.2392 5.3717C19.5784 4.90715 18.7269 4.41558 17.6497 3.79368L17.5887 3.75846C16.5116 3.13656 15.6601 2.64497 14.9274 2.30495C14.1748 1.95567 13.4996 1.74258 12.7662 1.70617ZM12.2704 3.20433C12.4108 3.19735 12.5514 3.19735 12.6919 3.20433C13.1647 3.2278 13.6441 3.36306 14.296 3.66558C14.9609 3.97414 15.7549 4.43172 16.8693 5.07511C17.9836 5.71851 18.7769 6.17728 19.3766 6.59884C19.9645 7.01214 20.3214 7.3597 20.5781 7.75745C20.6543 7.87556 20.7247 7.99739 20.7888 8.12247C21.0049 8.54369 21.1275 9.02652 21.1915 9.74234C21.2567 10.4725 21.2574 11.3888 21.2574 12.6756C21.2574 13.9624 21.2567 14.8787 21.1915 15.6089C21.1275 16.3247 21.0049 16.8075 20.7888 17.2287C20.7247 17.3538 20.6543 17.4756 20.5781 17.5937C20.3214 17.9915 19.9645 18.3391 19.3766 18.7523C18.7769 19.1739 17.9836 19.6327 16.8693 20.2761C15.7549 20.9195 14.9609 21.377 14.296 21.6856C13.6441 21.9881 13.1647 22.1234 12.6919 22.1469C12.5514 22.1538 12.4108 22.1538 12.2704 22.1469C11.7975 22.1234 11.3181 21.9881 10.6662 21.6856C10.0013 21.377 9.20737 20.9195 8.09297 20.2761C6.97858 19.6327 6.18535 19.1739 5.58566 18.7524C4.99773 18.3391 4.64087 17.9915 4.38413 17.5937C4.30789 17.4756 4.23755 17.3538 4.17338 17.2287C3.9573 16.8075 3.83472 16.3247 3.77076 15.6089C3.70552 14.8787 3.70483 13.9624 3.70483 12.6756C3.70483 11.3888 3.70552 10.4725 3.77076 9.74234C3.83472 9.02652 3.9573 8.54369 4.17338 8.12247C4.23755 7.99739 4.30788 7.87556 4.38413 7.75745C4.64087 7.35971 4.99773 7.01214 5.58566 6.59884C6.18535 6.17728 6.97858 5.71851 8.09297 5.07511C9.20736 4.43172 10.0013 3.97414 10.6662 3.66558C11.3181 3.36306 11.7975 3.2278 12.2704 3.20433Z" fill="#7B8694"/>
</svg>
