<svg width="45" height="48" viewBox="0 0 45 48" fill="none" xmlns="http://www.w3.org/2000/svg">
<path d="M16.3407 8.56349C16.1056 8.03903 15.8253 7.55977 15.5133 7.11669C13.2843 3.97893 9.25134 2.91191 5.74735 4.45366C1.67821 6.24861 -0.125798 11.0411 1.56968 14.9746C1.85 15.6257 2.20718 16.218 2.62314 16.7515C5.04202 13.7313 9.03884 13.8127 13.9444 13.9122L14.3332 13.9212C15.1561 13.9619 15.9609 13.9981 16.7476 14.0252C16.7973 13.8624 16.838 13.6997 16.8742 13.5324C17.2223 11.9318 17.0821 10.2002 16.3407 8.56349ZM12.2489 11.2898C11.2723 11.751 10.2867 12.2031 9.30559 12.6552C8.3516 13.0938 7.40213 13.5369 6.44815 13.9754C5.88299 14.2332 5.41729 14.0794 5.16862 13.564C4.91995 13.035 5.1008 12.5558 5.675 12.289C7.60558 11.3893 9.54067 10.4941 11.4803 9.60338C12.0138 9.35924 12.5609 9.54009 12.7869 10.0103C13.0175 10.4941 12.8051 11.0276 12.2489 11.2898ZM14.2745 15.7252H13.9082C9.12019 15.6212 5.79709 15.5534 3.90719 18.0582C6.24469 19.9435 9.53166 20.4635 12.3077 19.1523C13.9128 18.4334 15.1832 17.2443 16.0016 15.802C15.4364 15.7794 14.8577 15.7523 14.2745 15.7252Z" fill="#248A88"/>
<path d="M37.8847 3.37294C35.1222 2.79422 32.3371 3.79342 30.5873 5.84155C29.778 6.78197 29.1903 7.94846 28.9235 9.28224C28.598 10.8963 28.8105 12.4516 29.4028 13.799C29.448 13.903 29.4978 14.007 29.552 14.1064C30.7999 14.0567 31.9573 13.9844 33.0424 13.8939C33.6799 13.8578 34.2948 13.8352 34.8916 13.8261C34.878 13.7357 34.8826 13.6362 34.9007 13.5322C35.0092 12.9445 35.1222 12.3567 35.2533 11.7689C35.3166 11.4977 35.2443 11.3711 34.9594 11.3258C34.3898 11.2264 33.8246 11.1088 33.2549 10.9913C32.6717 10.8692 32.4004 10.5075 32.4954 9.98755C32.5903 9.46761 33.0107 9.19633 33.5849 9.30032C34.1682 9.40431 34.747 9.51734 35.3212 9.64394C35.5698 9.69819 35.6828 9.62585 35.728 9.37266C35.832 8.78038 35.9451 8.19261 36.0762 7.60937C36.1802 7.12107 36.5373 6.83623 36.9669 6.86788C37.5139 6.90405 37.8666 7.34713 37.7717 7.89873C37.6631 8.50006 37.5501 9.09686 37.4145 9.69367C37.3557 9.96042 37.4461 10.0689 37.7038 10.1141C38.2871 10.2136 38.8613 10.3312 39.44 10.4578C39.8108 10.5346 40.0911 10.7426 40.177 11.1269C40.2448 11.4479 40.1544 11.7418 39.8967 11.9679C39.6887 12.1487 39.4445 12.2075 39.1732 12.1578C38.8613 12.1035 38.5448 12.0357 38.2328 11.9724C37.9254 11.9181 37.6224 11.8639 37.3195 11.7961C37.098 11.7418 36.994 11.8187 36.9533 12.0402C36.8403 12.6461 36.7272 13.2519 36.5961 13.8532C38.8749 13.9572 40.7828 14.3913 42.302 15.404C42.9847 14.5314 43.482 13.487 43.7217 12.3024C44.5762 8.08862 41.8996 4.2139 37.8847 3.37294ZM33.1736 15.6979C32.4049 15.7612 31.6001 15.8155 30.7546 15.8607C31.8307 17.0362 33.2685 17.8636 34.869 18.153C37.0212 18.6187 39.2772 18.0535 40.9908 16.7152C39.327 15.7522 36.9036 15.4809 33.1736 15.6979Z" fill="#F2774B"/>
<path d="M19.7722 15.9331C21.8565 16.9504 24.3613 17.0408 26.5948 15.9964C24.515 16.019 22.2499 16.0009 19.7722 15.9331ZM30.5871 5.84164C30.4921 5.60201 30.3836 5.3669 30.2616 5.13632C28.2315 1.26611 23.4299 -0.230425 19.5642 1.79962C17.4121 2.92994 15.9969 4.91025 15.5132 7.11663C15.1198 8.8754 15.3278 10.7789 16.2275 12.4969C16.4174 12.8632 16.6345 13.2113 16.8741 13.5323C17.0052 13.7132 17.1453 13.885 17.2991 14.0477C21.8836 14.215 25.7991 14.2421 29.1312 14.1201C29.2262 14.0161 29.3166 13.9076 29.4025 13.7991C31.1703 11.6062 31.6903 8.55892 30.5871 5.84164ZM26.6852 10.5799C26.5451 11.0094 26.3281 11.4028 26.0251 11.7555C25.7267 12.1081 25.3605 12.3975 24.931 12.6235C24.3658 12.9174 23.7871 13.0485 23.1903 13.0214C22.5935 12.9898 22.0283 12.7908 21.4993 12.4246C21.1738 12.1985 20.8799 11.9137 20.6132 11.5656L19.6139 12.09L19.2929 11.2265L20.1294 10.7879C20.0299 10.5935 19.9395 10.3946 19.8672 10.1911L19.0805 10.607L18.7639 9.74349L19.6139 9.29136C19.6049 9.24163 19.5959 9.18737 19.5914 9.13764C19.5055 8.55892 19.519 8.00732 19.6366 7.47381C19.7541 6.9403 19.9756 6.46105 20.2921 6.02701C20.6131 5.59297 21.0336 5.24031 21.5536 4.96903C22.2046 4.62541 22.8557 4.4943 23.5113 4.58472C24.1623 4.67063 24.7139 4.96903 25.1661 5.47541L24.203 6.556C23.9001 6.24855 23.5656 6.06318 23.1948 5.99988C22.8286 5.93658 22.4624 5.99988 22.0962 6.18977C21.7887 6.35254 21.5446 6.57408 21.3592 6.8544C21.1738 7.13472 21.0517 7.45121 20.993 7.80386C20.9477 8.05706 20.9432 8.31477 20.9703 8.58152L23.0502 7.4919L23.3576 8.35998L21.1783 9.50386C21.2416 9.69828 21.3275 9.88365 21.427 10.0735L21.4406 10.1007L23.5746 8.98392L23.8911 9.84748L21.965 10.8557C22.0645 10.9688 22.1685 11.0682 22.2815 11.1541C22.6116 11.4164 22.9552 11.5701 23.3214 11.6108C23.6876 11.6515 24.0403 11.5836 24.3749 11.4073C24.7501 11.2084 25.0259 10.9326 25.2068 10.5754C25.3876 10.2227 25.46 9.82487 25.4283 9.38179L26.8163 9.23258C26.8661 9.7028 26.8254 10.1504 26.6852 10.5799Z" fill="#F7B71E"/>
<path d="M43.4546 19.5773C42.8623 18.2797 42.0937 17.3438 40.9905 16.7153C39.3267 15.7523 36.9033 15.481 33.1733 15.6981C32.4046 15.7614 31.5998 15.8156 30.7543 15.8608C29.4658 15.9286 28.0778 15.9739 26.5948 15.9965C24.515 16.0191 22.2499 16.001 19.7722 15.9332C18.565 15.9015 17.3081 15.8563 16.0014 15.802C15.4363 15.7794 14.8576 15.7523 14.2743 15.7252H13.9081C9.12005 15.6212 5.79694 15.5534 3.90705 18.0582C3.69908 18.3294 3.50918 18.6324 3.33737 18.9715C1.37966 22.5523 1.32993 29.2257 3.20626 34.5201C5.17754 40.3028 9.1879 44.4578 14.5049 46.2256C24.8496 49.499 38.1557 47.5278 42.9482 35.4515C45.2993 29.3794 44.9828 22.8643 43.4546 19.5773ZM15.0926 29.4382H13.1214V29.2619C13.1214 28.7419 12.9632 28.3576 12.6467 28.1044C12.3257 27.8512 11.8057 27.7246 11.0913 27.7246C10.5171 27.7246 10.056 27.8015 9.70333 27.9552C9.35519 28.1089 9.10197 28.3576 8.94373 28.7012C8.78548 29.0448 8.70864 29.5105 8.70864 30.0983C8.70864 30.6861 8.78548 31.1472 8.94373 31.4908C9.10197 31.839 9.35519 32.0876 9.70333 32.2414C10.056 32.3951 10.5171 32.472 11.0913 32.472C11.8057 32.472 12.3257 32.3454 12.6467 32.0967C12.9632 31.8435 13.1214 31.4592 13.1214 30.9392V30.7629H15.0926V30.9392C15.0926 31.6084 14.9299 32.1826 14.5998 32.6664C14.2698 33.1501 13.7996 33.5254 13.1983 33.7831C12.5969 34.0454 11.8826 34.1719 11.0552 34.1719C10.2278 34.1719 9.44107 34.0047 8.8081 33.6701C8.17512 33.3355 7.68683 32.8653 7.34321 32.2549C6.99959 31.6446 6.82778 30.9257 6.82778 30.0983C6.82778 29.2709 6.99959 28.5565 7.34321 27.9462C7.68683 27.3358 8.17512 26.8611 8.8081 26.5265C9.44107 26.1919 10.1916 26.0246 11.0552 26.0246C11.9187 26.0246 12.5969 26.1557 13.1983 26.418C13.7996 26.6757 14.2698 27.0464 14.5998 27.5257C14.9299 28.0049 15.0926 28.5837 15.0926 29.2619V29.4382ZM22.5573 27.7382H17.6336V29.2845H22.3809V30.8669H17.6336V32.4629H22.5573V34.0544H15.8613V26.1422H22.5573V27.7382ZM30.1124 32.9286C29.8772 33.2993 29.4975 33.6023 28.9775 33.8329C28.4621 34.0589 27.7839 34.1719 26.9475 34.1719C26.111 34.1719 25.4781 34.068 24.9174 33.86C24.3568 33.652 23.9363 33.34 23.6424 32.9286C23.353 32.5126 23.2038 32.0017 23.2038 31.3869V31.3145H24.9762V31.527C24.9762 31.7712 25.0304 31.9701 25.1344 32.1193C25.2429 32.2685 25.4373 32.377 25.7222 32.4493C26.0025 32.5217 26.414 32.5579 26.9475 32.5579C27.4222 32.5579 27.7839 32.5307 28.037 32.481C28.2857 32.4267 28.4621 32.3454 28.557 32.2368C28.6474 32.1283 28.6972 31.9837 28.6972 31.8118C28.6972 31.5677 28.6158 31.3914 28.453 31.2829C28.2948 31.1698 28.0099 31.0794 27.6121 31.0071L25.3921 30.6906C24.9174 30.6137 24.515 30.4826 24.1804 30.3017C23.8459 30.1209 23.5881 29.8767 23.4073 29.5738C23.2264 29.2709 23.136 28.9047 23.136 28.4706C23.136 28.1722 23.1993 27.8738 23.3304 27.5845C23.4616 27.2951 23.665 27.0329 23.9499 26.7978C24.2347 26.5672 24.6054 26.3818 25.0666 26.2371C25.5278 26.097 26.0929 26.0246 26.7621 26.0246C27.5714 26.0246 28.236 26.1422 28.7605 26.3728C29.285 26.6079 29.6783 26.9334 29.936 27.3539C30.1937 27.7744 30.3248 28.2627 30.3248 28.8142V28.8821H28.5434V28.7193C28.5434 28.4661 28.4892 28.2627 28.3852 28.1044C28.2767 27.9462 28.0823 27.8331 27.7975 27.7563C27.5171 27.6794 27.1102 27.6432 26.5812 27.6432C26.1562 27.6432 25.8262 27.6704 25.5866 27.7246C25.3469 27.7834 25.1751 27.8648 25.0711 27.9733C24.9671 28.0863 24.9174 28.2265 24.9174 28.3983C24.9174 28.5475 24.949 28.6741 25.0123 28.7736C25.0756 28.8685 25.1751 28.9454 25.3062 29.0041C25.4419 29.0584 25.6182 29.1036 25.8397 29.1443L28.0597 29.497C28.6474 29.5919 29.1177 29.7456 29.4703 29.9581C29.8184 30.1706 30.0717 30.4283 30.2299 30.7313C30.3882 31.0342 30.4695 31.3688 30.4695 31.7305C30.4695 32.1555 30.3475 32.5533 30.1124 32.9286ZM38.8971 30.7494C38.8971 31.4592 38.7525 32.0696 38.4631 32.5805C38.1692 33.0914 37.7397 33.4847 37.17 33.7605C36.5958 34.0363 35.877 34.1719 35.0134 34.1719C34.1498 34.1719 33.44 34.0363 32.8658 33.7605C32.2916 33.4847 31.8575 33.0914 31.5637 32.5805C31.2743 32.0696 31.1296 31.4592 31.1296 30.7494V26.1422H32.8974V30.6182C32.8974 31.0658 32.9653 31.4275 33.0964 31.6988C33.223 31.9701 33.4445 32.1645 33.7565 32.2775C34.0684 32.3906 34.4844 32.4493 35.0134 32.4493C35.5424 32.4493 35.9809 32.3906 36.2884 32.2775C36.5958 32.1645 36.8129 31.9701 36.9395 31.6988C37.0615 31.4275 37.1248 31.0658 37.1248 30.6182V26.1422H38.8971V30.7494Z" fill="#248A88"/>
</svg>
