<svg width="11" height="13" viewBox="0 0 11 13" fill="none" xmlns="http://www.w3.org/2000/svg">
<path d="M5.92725 2.10575C6.22145 1.81417 6.22357 1.3393 5.93198 1.0451C5.6404 0.750903 5.16553 0.748785 4.87133 1.04037L3.0766 2.81916C2.40063 3.4891 1.84815 4.03665 1.45635 4.52452C1.04892 5.03184 0.753987 5.54678 0.675201 6.1649C0.640656 6.43592 0.640656 6.71019 0.675201 6.98122C0.753987 7.59933 1.04892 8.11427 1.45635 8.6216C1.84815 9.10947 2.40062 9.65701 3.07659 10.3269L4.87133 12.1058C5.16553 12.3973 5.6404 12.3952 5.93198 12.101C6.22357 11.8068 6.22145 11.332 5.92725 11.0404L4.16428 9.29306C3.44879 8.58392 2.95799 8.09588 2.62589 7.68235C2.30329 7.28066 2.19262 7.02264 2.16316 6.79156C2.14467 6.64647 2.14467 6.49965 2.16316 6.35456C2.19262 6.12348 2.30329 5.86546 2.62589 5.46376C2.95799 5.05024 3.44879 4.5622 4.16428 3.85306L5.92725 2.10575Z" fill="white"/>
<path d="M10.7718 2.10575C11.066 1.81417 11.0681 1.3393 10.7765 1.0451C10.4849 0.750903 10.0101 0.748785 9.71588 1.04037L7.92114 2.81916C7.24517 3.4891 6.6927 4.03665 6.30089 4.52452C5.89346 5.03184 5.59853 5.54678 5.51974 6.1649C5.4852 6.43592 5.4852 6.71019 5.51974 6.98122C5.59853 7.59933 5.89346 8.11427 6.30089 8.6216C6.6927 9.10947 7.24516 9.65701 7.92113 10.3269L9.71588 12.1058C10.0101 12.3973 10.4849 12.3952 10.7765 12.101C11.0681 11.8068 11.066 11.332 10.7718 11.0404L9.00883 9.29306C8.29333 8.58392 7.80253 8.09588 7.47043 7.68235C7.14783 7.28066 7.03716 7.02264 7.00771 6.79156C6.98921 6.64647 6.98921 6.49965 7.00771 6.35456C7.03716 6.12348 7.14783 5.86546 7.47043 5.46376C7.80253 5.05024 8.29333 4.5622 9.00882 3.85306L10.7718 2.10575Z" fill="white"/>
</svg>
