<svg width="25" height="25" viewBox="0 0 25 25" fill="none" xmlns="http://www.w3.org/2000/svg">
<path d="M16.1177 12.6136C15.7034 12.6136 15.3677 12.9494 15.3677 13.3636C15.3677 13.7778 15.7034 14.1136 16.1177 14.1136H18.8449C19.2591 14.1136 19.5949 13.7778 19.5949 13.3636C19.5949 12.9494 19.2591 12.6136 18.8449 12.6136H16.1177Z" fill="#7B8694"/>
<path fill-rule="evenodd" clip-rule="evenodd" d="M20.1288 3.8774C20.2062 4.32136 20.2249 4.84895 20.2301 5.45257C20.3169 5.49782 20.402 5.54599 20.4857 5.59725C21.2594 6.07138 21.9099 6.72187 22.384 7.49557C22.906 8.34742 23.0958 9.3347 23.1742 10.5895C23.2313 11.5024 23.2313 12.6127 23.2313 13.9765V14.0047C23.2313 14.7867 23.2313 15.4833 23.221 16.1033C23.189 18.0312 23.0642 19.3944 22.384 20.5043C21.9099 21.278 21.2594 21.9285 20.4857 22.4026C19.7468 22.8554 18.9087 23.0571 17.8852 23.1545C16.881 23.2499 15.6241 23.2499 14.0207 23.2499H10.9419C9.33858 23.2499 8.08157 23.2499 7.0774 23.1545C6.05385 23.0571 5.21575 22.8554 4.47693 22.4026C3.70324 21.9285 3.05274 21.278 2.57862 20.5043C2.12587 19.7655 1.92408 18.9274 1.82676 17.9038C1.73129 16.8996 1.73129 15.6427 1.7313 14.0393L1.73138 13.5136C1.7182 13.0194 1.72225 12.4669 1.72661 11.8713C1.72891 11.5573 1.7313 11.2313 1.7313 10.8956L1.7313 10.8522C1.73129 9.13997 1.73128 7.79615 1.84212 6.72961C1.95517 5.64181 2.19025 4.75455 2.72042 3.99379C3.04074 3.53415 3.42935 3.12866 3.87267 2.79287C4.61098 2.23364 5.47496 1.98503 6.52858 1.86602C7.55651 1.74992 8.84966 1.74993 10.4878 1.74994L15.9558 1.74993C16.7544 1.7499 17.4312 1.74987 17.9708 1.8255C18.5472 1.90629 19.0761 2.086 19.4993 2.52721C19.8667 2.91019 20.0407 3.37221 20.1288 3.8774ZM15.9031 3.24994C16.7688 3.24994 17.3394 3.25166 17.7626 3.31098C18.1609 3.36681 18.3159 3.46032 18.4168 3.56556C18.5102 3.66289 18.5944 3.80981 18.6511 4.13499C18.689 4.35242 18.7096 4.61817 18.7206 4.95813C18.3078 4.88258 17.8624 4.83603 17.3772 4.80609C16.4672 4.74993 15.3613 4.74993 14.0045 4.74994H10.9419C9.33855 4.74993 8.08159 4.74992 7.0774 4.8454C6.05385 4.94272 5.21575 5.1445 4.47693 5.59725C4.07865 5.84132 3.71301 6.13213 3.38728 6.46242C3.49704 5.73509 3.67679 5.24498 3.95106 4.85142C4.18264 4.51912 4.46205 4.22817 4.77836 3.98858C5.21609 3.65703 5.77894 3.46024 6.69693 3.35655C7.63089 3.25105 8.83936 3.24994 10.5344 3.24994H15.9031ZM5.26068 6.87622C5.7242 6.59217 6.30563 6.42555 7.21938 6.33867C8.1443 6.25073 9.33006 6.24994 10.9813 6.24994H13.9813C15.3659 6.24994 16.4262 6.25026 17.2848 6.30324C18.1426 6.35617 18.7423 6.45935 19.215 6.63889C19.3921 6.70613 19.5523 6.78454 19.7019 6.87622C20.2738 7.22665 20.7546 7.70746 21.105 8.27932C21.3516 8.68176 21.5088 9.17093 21.6029 9.88631H16.1177C14.1972 9.88631 12.6404 11.4431 12.6404 13.3636C12.6404 15.284 14.1972 16.8409 16.1177 16.8409H21.7006C21.6429 18.3012 21.4835 19.1029 21.105 19.7206C20.7546 20.2924 20.2738 20.7732 19.7019 21.1237C19.2384 21.4077 18.657 21.5743 17.7432 21.6612C16.8183 21.7491 15.6325 21.7499 13.9813 21.7499H10.9813C9.33006 21.7499 8.1443 21.7491 7.21938 21.6612C6.30563 21.5743 5.7242 21.4077 5.26068 21.1237C4.68882 20.7732 4.20801 20.2924 3.85758 19.7206C3.57353 19.257 3.40691 18.6756 3.32003 17.7618C3.23209 16.8369 3.2313 15.6512 3.2313 13.9999C3.2313 12.3487 3.23209 11.1629 3.32003 10.238C3.40691 9.32427 3.57353 8.74284 3.85758 8.27932C4.20801 7.70746 4.68882 7.22665 5.26068 6.87622ZM14.1404 13.3636C14.1404 12.2716 15.0256 11.3863 16.1177 11.3863H21.7089C21.7311 12.1102 21.7313 12.9643 21.7313 13.9999C21.7313 14.4838 21.7313 14.9289 21.7289 15.3409H16.1177C15.0256 15.3409 14.1404 14.4556 14.1404 13.3636Z" fill="#7B8694"/>
</svg>
