<svg width="25" height="25" viewBox="0 0 25 25" fill="none" xmlns="http://www.w3.org/2000/svg">
<path d="M16.9812 8.92554C17.3954 8.92554 17.7312 8.58975 17.7312 8.17554C17.7312 7.76132 17.3954 7.42554 16.9812 7.42554L8.9812 7.42554C8.56699 7.42554 8.2312 7.76132 8.2312 8.17554C8.2312 8.58975 8.56699 8.92554 8.9812 8.92554L16.9812 8.92554Z" fill="#7B8694"/>
<path d="M13.9812 11.4255C13.567 11.4255 13.2312 11.7613 13.2312 12.1755C13.2312 12.5898 13.567 12.9255 13.9812 12.9255H16.9812C17.3954 12.9255 17.7312 12.5898 17.7312 12.1755C17.7312 11.7613 17.3954 11.4255 16.9812 11.4255H13.9812Z" fill="#7B8694"/>
<path fill-rule="evenodd" clip-rule="evenodd" d="M17.4447 1.54927C16.3026 1.42552 14.863 1.42553 13.0265 1.42554H12.936C11.0994 1.42553 9.65981 1.42552 8.51768 1.54927C7.35214 1.67554 6.40776 1.93786 5.60144 2.52369C5.11329 2.87835 4.68401 3.30763 4.32935 3.79577C3.74353 4.6021 3.48121 5.54648 3.35493 6.71201C3.23119 7.85415 3.23119 9.29375 3.2312 11.1303V13.1866C3.2312 14.3467 3.2312 15.344 3.26057 16.2012C3.32476 18.0747 3.5275 19.4516 4.32935 20.5553C4.68401 21.0434 5.11329 21.4727 5.60144 21.8274C6.7051 22.6292 8.08208 22.832 9.95552 22.8962C10.8127 22.9255 11.8101 22.9255 12.9702 22.9255H13.0265C14.863 22.9255 16.3026 22.9256 17.4447 22.8018C18.6103 22.6755 19.5546 22.4132 20.361 21.8274C20.8491 21.4727 21.2784 21.0434 21.633 20.5553C22.2189 19.749 22.4812 18.8046 22.6075 17.6391C22.7312 16.4969 22.7312 15.0574 22.7312 13.2209V11.1303C22.7312 9.29378 22.7312 7.85413 22.6075 6.71201C22.4812 5.54648 22.2189 4.6021 21.633 3.79577C21.2784 3.30763 20.8491 2.87835 20.361 2.52369C19.5546 1.93786 18.6103 1.67554 17.4447 1.54927ZM6.48311 3.73722C6.99112 3.36813 7.64134 3.15299 8.67925 3.04054C9.73119 2.92657 11.0896 2.92554 12.9812 2.92554C14.8728 2.92554 16.2312 2.92657 17.2832 3.04054C18.3211 3.15299 18.9713 3.36813 19.4793 3.73722C19.8401 3.99935 20.1574 4.31665 20.4195 4.67745C20.7886 5.18545 21.0037 5.83567 21.1162 6.87358C21.2302 7.92553 21.2312 9.28397 21.2312 11.1755V13.1755C21.2312 15.0671 21.2302 16.4255 21.1162 17.4775C21.0037 18.5154 20.7886 19.1656 20.4195 19.6736C20.1574 20.0344 19.8401 20.3517 19.4793 20.6139C18.9713 20.9829 18.3211 21.1981 17.2832 21.3105C16.2312 21.4245 14.8728 21.4255 12.9812 21.4255C12.1329 21.4255 11.3894 21.4255 10.7294 21.4147C10.725 20.9401 10.7102 20.5906 10.6604 20.276C10.2707 17.8157 8.34108 15.886 5.8807 15.4963C5.56609 15.4465 5.21667 15.4317 4.74202 15.4274C4.73125 14.7673 4.7312 14.0239 4.7312 13.1755V11.1755C4.7312 9.28397 4.73223 7.92553 4.8462 6.87358C4.95865 5.83567 5.17379 5.18545 5.54288 4.67745C5.80502 4.31665 6.12231 3.99935 6.48311 3.73722ZM9.17888 20.5107C9.21135 20.7157 9.22374 20.9532 9.22842 21.3581C7.86808 21.2643 7.08257 21.0494 6.48311 20.6139C6.12231 20.3517 5.80502 20.0344 5.54288 19.6736C5.10735 19.0742 4.89242 18.2887 4.79865 16.9283C5.20359 16.933 5.44101 16.9454 5.64605 16.9779C7.46459 17.2659 8.89085 18.6921 9.17888 20.5107Z" fill="#7B8694"/>
</svg>
