<svg width="18" height="23" viewBox="0 0 18 23" fill="none" xmlns="http://www.w3.org/2000/svg">
<path fill-rule="evenodd" clip-rule="evenodd" d="M8.81445 6.24072C6.74339 6.24072 5.06445 7.91965 5.06445 9.99072C5.06445 12.0618 6.74339 13.7407 8.81445 13.7407C10.8855 13.7407 12.5645 12.0618 12.5645 9.99072C12.5645 7.91965 10.8855 6.24072 8.81445 6.24072ZM6.56445 9.99072C6.56445 8.74808 7.57181 7.74072 8.81445 7.74072C10.0571 7.74072 11.0645 8.74808 11.0645 9.99072C11.0645 11.2334 10.0571 12.2407 8.81445 12.2407C7.57181 12.2407 6.56445 11.2334 6.56445 9.99072Z" fill="#C0BEC9"/>
<path fill-rule="evenodd" clip-rule="evenodd" d="M8.81445 0.240723C3.93112 0.240723 0.0644531 4.4835 0.0644531 9.59942C0.0644531 11.2401 0.879559 13.1722 1.90509 14.9852C2.94723 16.8277 4.27733 18.6669 5.44349 20.154L5.48239 20.2036C6.05159 20.9296 6.53649 21.548 7.0067 21.9751C7.51969 22.4411 8.0854 22.7462 8.81445 22.7462C9.54351 22.7462 10.1092 22.4411 10.6222 21.9751C11.0924 21.548 11.5773 20.9296 12.1465 20.2036L12.1854 20.154C13.3516 18.6669 14.6817 16.8277 15.7238 14.9852C16.7493 13.1722 17.5645 11.2401 17.5645 9.59942C17.5645 4.4835 13.6978 0.240723 8.81445 0.240723ZM1.56445 9.59942C1.56445 5.20644 4.86123 1.74072 8.81445 1.74072C12.7677 1.74072 16.0645 5.20644 16.0645 9.59942C16.0645 10.8259 15.4248 12.4671 14.4182 14.2468C13.4282 15.9971 12.1487 17.7701 11.0051 19.2284C10.3861 20.0177 9.97858 20.5333 9.61364 20.8648C9.2808 21.1671 9.05863 21.2462 8.81445 21.2462C8.57028 21.2462 8.3481 21.1671 8.01527 20.8648C7.65033 20.5333 7.2428 20.0177 6.62384 19.2284C5.48024 17.7701 4.20074 15.9971 3.21071 14.2468C2.20407 12.4671 1.56445 10.8259 1.56445 9.59942Z" fill="#C0BEC9"/>
</svg>

