<svg width="41" height="42" viewBox="0 0 41 42" fill="none" xmlns="http://www.w3.org/2000/svg">
<path d="M8.63605 34.3046L9.38828 33.2693L8.63605 34.3046ZM6.74856 32.4171L7.78391 31.6649L6.74856 32.4171ZM34.204 32.4171L33.1687 31.6649L34.204 32.4171ZM32.3165 34.3046L31.5643 33.2693L32.3165 34.3046ZM32.3165 6.84915L31.5643 7.88449L32.3165 6.84915ZM34.204 8.73664L33.1687 9.48886L34.204 8.73664ZM8.63605 6.84915L9.38828 7.88449L8.63605 6.84915ZM6.74856 8.73664L7.78391 9.48886L6.74856 8.73664ZM27.3017 21.8566C28.0085 21.8566 28.5814 21.2837 28.5814 20.5769C28.5814 19.8701 28.0085 19.2971 27.3017 19.2971V21.8566ZM18.2103 28.3112C18.7123 28.8088 19.5226 28.8052 20.0202 28.3032C20.5177 27.8012 20.5141 26.9909 20.0121 26.4933L18.2103 28.3112ZM16.7046 25.0171L15.8037 25.926L16.7046 25.0171ZM16.7046 16.1367L15.8037 15.2277L16.7046 16.1367ZM20.0121 14.6604C20.5141 14.1629 20.5177 13.3526 20.0202 12.8506C19.5226 12.3486 18.7123 12.345 18.2103 12.8425L20.0121 14.6604ZM13.678 21.0046L12.4085 21.1664L12.4085 21.1664L13.678 21.0046ZM13.678 20.1491L12.4085 19.9873L12.4085 19.9873L13.678 20.1491ZM20.4763 34.6543C17.2486 34.6543 14.9306 34.6525 13.1356 34.458C11.3646 34.2661 10.2551 33.899 9.38828 33.2693L7.88383 35.34C9.2597 36.3396 10.8711 36.7872 12.86 37.0027C14.8248 37.2155 17.3056 37.2138 20.4763 37.2138V34.6543ZM3.83938 20.5769C3.83938 23.7475 3.83762 26.2283 4.0505 28.1932C4.26598 30.182 4.71358 31.7935 5.71321 33.1693L7.78391 31.6649C7.15412 30.798 6.78701 29.6886 6.59513 27.9175C6.40066 26.1225 6.3989 23.8046 6.3989 20.5769H3.83938ZM9.38828 33.2693C8.77262 32.822 8.23121 32.2805 7.78391 31.6649L5.71321 33.1693C6.31838 34.0023 7.05088 34.7348 7.88383 35.34L9.38828 33.2693ZM34.5537 20.5769C34.5537 23.8046 34.5519 26.1225 34.3574 27.9175C34.1656 29.6886 33.7985 30.798 33.1687 31.6649L35.2394 33.1693C36.239 31.7935 36.6866 30.182 36.9021 28.1932C37.115 26.2283 37.1132 23.7475 37.1132 20.5769H34.5537ZM20.4763 37.2138C23.647 37.2138 26.1278 37.2155 28.0926 37.0027C30.0814 36.7872 31.6929 36.3396 33.0687 35.34L31.5643 33.2693C30.6975 33.899 29.588 34.2661 27.8169 34.458C26.0219 34.6525 23.704 34.6543 20.4763 34.6543V37.2138ZM33.1687 31.6649C32.7214 32.2805 32.18 32.822 31.5643 33.2693L33.0687 35.34C33.9017 34.7348 34.6342 34.0023 35.2394 33.1693L33.1687 31.6649ZM20.4763 6.49949C23.704 6.49949 26.0219 6.50125 27.8169 6.69572C29.588 6.8876 30.6975 7.2547 31.5643 7.88449L33.0687 5.8138C31.6929 4.81417 30.0814 4.36656 28.0926 4.15109C26.1278 3.93821 23.647 3.93996 20.4763 3.93996V6.49949ZM37.1132 20.5769C37.1132 17.4062 37.115 14.9254 36.9021 12.9605C36.6866 10.9717 36.239 9.36028 35.2394 7.98441L33.1687 9.48886C33.7985 10.3557 34.1656 11.4652 34.3574 13.2362C34.5519 15.0312 34.5537 17.3492 34.5537 20.5769H37.1132ZM31.5643 7.88449C32.18 8.3318 32.7214 8.87321 33.1687 9.48886L35.2394 7.98441C34.6342 7.15147 33.9017 6.41897 33.0687 5.8138L31.5643 7.88449ZM20.4763 3.93996C17.3056 3.93996 14.8248 3.93821 12.86 4.15109C10.8711 4.36656 9.2597 4.81417 7.88383 5.8138L9.38828 7.88449C10.2551 7.2547 11.3646 6.8876 13.1356 6.69572C14.9306 6.50125 17.2486 6.49949 20.4763 6.49949V3.93996ZM6.3989 20.5769C6.3989 17.3492 6.40066 15.0312 6.59513 13.2362C6.78701 11.4652 7.15412 10.3557 7.78391 9.48886L5.71321 7.98441C4.71358 9.36028 4.26598 10.9717 4.0505 12.9605C3.83762 14.9254 3.83938 17.4062 3.83938 20.5769H6.3989ZM7.88383 5.8138C7.05088 6.41897 6.31838 7.15147 5.71321 7.98441L7.78391 9.48886C8.23121 8.87321 8.77262 8.33179 9.38828 7.88449L7.88383 5.8138ZM27.3017 19.2971H15.016V21.8566H27.3017V19.2971ZM20.0121 26.4933L17.6055 24.1081L15.8037 25.926L18.2103 28.3112L20.0121 26.4933ZM17.6055 17.0456L20.0121 14.6604L18.2103 12.8425L15.8037 15.2277L17.6055 17.0456ZM17.6055 24.1081C16.6245 23.1358 15.967 22.4814 15.5249 21.9309C15.099 21.4006 14.9793 21.0922 14.9475 20.8428L12.4085 21.1664C12.5245 22.0762 12.9586 22.823 13.5292 23.5336C14.0836 24.2239 14.8655 24.9961 15.8037 25.926L17.6055 24.1081ZM15.8037 15.2277C14.8655 16.1576 14.0836 16.9298 13.5292 17.6202C12.9586 18.3307 12.5245 19.0775 12.4085 19.9873L14.9475 20.311C14.9793 20.0616 15.099 19.7532 15.5249 19.2229C15.967 18.6724 16.6245 18.0179 17.6055 17.0456L15.8037 15.2277ZM14.9475 20.8428C14.9363 20.7545 14.9307 20.6657 14.9307 20.5769H12.3711C12.3711 20.7738 12.3836 20.9707 12.4085 21.1664L14.9475 20.8428ZM14.9307 20.5769C14.9307 20.4881 14.9363 20.3993 14.9475 20.311L12.4085 19.9873C12.3836 20.1831 12.3711 20.38 12.3711 20.5769H14.9307ZM15.016 19.2971H13.6509V21.8566H15.016V19.2971Z" fill="#5DBF96"/>
</svg>
