<svg width="25" height="25" viewBox="0 0 25 25" fill="none" xmlns="http://www.w3.org/2000/svg">
<path d="M10.0729 8.13501C10.0729 7.72079 9.73713 7.38501 9.32292 7.38501C8.9087 7.38501 8.57292 7.72079 8.57292 8.13501H10.0729ZM9.32292 16.8017H10.0729H9.32292ZM7.24393 14.3357C6.98659 14.0111 6.51485 13.9566 6.19028 14.214C5.86571 14.4713 5.81122 14.9431 6.06857 15.2676L7.24393 14.3357ZM7.58815 15.977L8.17583 15.511H8.17583L7.58815 15.977ZM11.0577 15.977L11.6454 16.443L11.6454 16.443L11.0577 15.977ZM12.5773 15.2676C12.8346 14.9431 12.7801 14.4713 12.4556 14.214C12.131 13.9566 11.6592 14.0111 11.4019 14.3357L12.5773 15.2676ZM9.15581 17.4551L9.0378 18.1957L9.0378 18.1957L9.15581 17.4551ZM9.49003 17.4551L9.37202 16.7144H9.37202L9.49003 17.4551ZM15.2397 16.8018C15.2397 17.2161 15.5755 17.5518 15.9897 17.5518C16.4039 17.5518 16.7397 17.2161 16.7397 16.8018H15.2397ZM12.7353 9.6692C12.478 9.99377 12.5325 10.4655 12.857 10.7229C13.1816 10.9802 13.6533 10.9257 13.9107 10.6011L12.7353 9.6692ZM14.2549 8.95986L13.6672 8.49389H13.6672L14.2549 8.95986ZM17.7244 8.95986L18.3121 8.49389L17.7244 8.95986ZM18.0687 10.6011C18.326 10.9257 18.7977 10.9802 19.1223 10.7229C19.4469 10.4655 19.5014 9.99377 19.244 9.6692L18.0687 10.6011ZM15.8226 7.48177L15.7046 6.74111L15.7045 6.74111L15.8226 7.48177ZM16.1568 7.48177L16.2748 6.74111L16.2748 6.74111L16.1568 7.48177ZM5.71732 20.5136L6.15816 19.9068L5.71732 20.5136ZM4.61116 19.4074L5.21793 18.9666L4.61116 19.4074ZM20.7013 19.4074L20.0946 18.9666L20.7013 19.4074ZM19.5952 20.5136L19.1543 19.9068L19.5952 20.5136ZM19.5952 4.42342L19.1543 5.03018L19.5952 4.42342ZM20.7013 5.52958L20.0946 5.97042L20.7013 5.52958ZM5.71732 4.42342L6.15816 5.03018L5.71732 4.42342ZM4.61116 5.52958L5.21793 5.97042L4.61116 5.52958ZM9.32292 17.4683L9.32292 18.2183L9.32292 17.4683ZM8.57292 8.13501L8.57292 16.8017H10.0729L10.0729 8.13501H8.57292ZM6.06857 15.2676L7.00046 16.443L8.17583 15.511L7.24393 14.3357L6.06857 15.2676ZM11.6454 16.443L12.5773 15.2676L11.4019 14.3357L10.47 15.511L11.6454 16.443ZM7.00046 16.443C7.36067 16.8972 7.66991 17.2891 7.94948 17.5698C8.23238 17.8538 8.57786 18.1225 9.0378 18.1957L9.27381 16.7144C9.27249 16.7142 9.26931 16.7137 9.26271 16.7111C9.25563 16.7083 9.24216 16.7022 9.22135 16.6892C9.17701 16.6615 9.11009 16.6094 9.01218 16.5112C8.80693 16.3051 8.5588 15.994 8.17583 15.511L7.00046 16.443ZM10.47 15.511C10.087 15.994 9.8389 16.3051 9.63366 16.5112C9.53575 16.6094 9.46882 16.6615 9.42448 16.6892C9.40368 16.7022 9.3902 16.7083 9.38313 16.7111C9.37653 16.7137 9.37334 16.7142 9.37202 16.7144L9.60804 18.1957C10.068 18.1225 10.4135 17.8538 10.6964 17.5698C10.9759 17.2891 11.2852 16.8972 11.6454 16.443L10.47 15.511ZM16.7397 16.8018V8.13517H15.2397V16.8018H16.7397ZM13.9107 10.6011L14.8426 9.42583L13.6672 8.49389L12.7353 9.6692L13.9107 10.6011ZM17.1368 9.42583L18.0687 10.6011L19.244 9.6692L18.3121 8.49389L17.1368 9.42583ZM14.8426 9.42583C15.2255 8.94283 15.4737 8.63174 15.6789 8.4257C15.7768 8.32741 15.8438 8.2753 15.8881 8.24763C15.9089 8.23465 15.9224 8.22856 15.9295 8.22578C15.9361 8.2232 15.9392 8.22263 15.9406 8.22242L15.7045 6.74111C15.2446 6.81439 14.8991 7.08308 14.6162 7.36708C14.3367 7.64773 14.0274 8.0396 13.6672 8.49389L14.8426 9.42583ZM18.3121 8.49389C17.9519 8.0396 17.6427 7.64773 17.3631 7.36708C17.0802 7.08308 16.7347 6.81439 16.2748 6.74111L16.0388 8.22242C16.0401 8.22263 16.0433 8.2232 16.0499 8.22578C16.0569 8.22856 16.0704 8.23465 16.0912 8.24763C16.1356 8.2753 16.2025 8.32741 16.3004 8.42569C16.5056 8.63173 16.7538 8.94283 17.1368 9.42583L18.3121 8.49389ZM12.6562 20.7185C10.7647 20.7185 9.40624 20.7175 8.35429 20.6035C7.31638 20.4911 6.66617 20.2759 6.15816 19.9068L5.27648 21.1204C6.08281 21.7062 7.02719 21.9685 8.19273 22.0948C9.34423 22.2195 10.7981 22.2185 12.6562 22.2185V20.7185ZM2.90625 12.4685C2.90625 14.3267 2.90522 15.7805 3.02998 16.932C3.15626 18.0976 3.41857 19.0419 4.0044 19.8483L5.21793 18.9666C4.84884 18.4586 4.6337 17.8084 4.52125 16.7705C4.40728 15.7185 4.40625 14.3601 4.40625 12.4685H2.90625ZM6.15816 19.9068C5.79736 19.6447 5.48007 19.3274 5.21793 18.9666L4.0044 19.8483C4.35906 20.3364 4.78834 20.7657 5.27648 21.1204L6.15816 19.9068ZM20.9062 12.4685C20.9062 14.3601 20.9052 15.7185 20.7913 16.7705C20.6788 17.8084 20.4637 18.4586 20.0946 18.9666L21.3081 19.8483C21.8939 19.0419 22.1562 18.0976 22.2825 16.932C22.4073 15.7805 22.4062 14.3267 22.4062 12.4685H20.9062ZM12.6562 22.2185C14.5144 22.2185 15.9683 22.2195 17.1198 22.0948C18.2853 21.9685 19.2297 21.7062 20.036 21.1204L19.1543 19.9068C18.6463 20.2759 17.9961 20.4911 16.9582 20.6035C15.9063 20.7175 14.5478 20.7185 12.6562 20.7185V22.2185ZM20.0946 18.9666C19.8324 19.3274 19.5151 19.6447 19.1543 19.9068L20.036 21.1204C20.5242 20.7657 20.9534 20.3364 21.3081 19.8483L20.0946 18.9666ZM12.6562 4.21851C14.5478 4.21851 15.9063 4.21954 16.9582 4.33351C17.9961 4.44596 18.6463 4.6611 19.1543 5.03018L20.036 3.81666C19.2297 3.23083 18.2853 2.96851 17.1198 2.84223C15.9683 2.71748 14.5144 2.71851 12.6562 2.71851V4.21851ZM22.4062 12.4685C22.4062 10.6103 22.4073 9.15648 22.2825 8.00498C22.1562 6.83944 21.8939 5.89506 21.3081 5.08874L20.0946 5.97042C20.4637 6.47842 20.6788 7.12864 20.7913 8.16655C20.9052 9.2185 20.9062 10.5769 20.9062 12.4685H22.4062ZM19.1543 5.03018C19.5151 5.29232 19.8324 5.60962 20.0946 5.97042L21.3081 5.08874C20.9534 4.6006 20.5242 4.17132 20.036 3.81666L19.1543 5.03018ZM12.6562 2.71851C10.7981 2.71851 9.34423 2.71748 8.19273 2.84223C7.02719 2.96851 6.08281 3.23083 5.27648 3.81666L6.15816 5.03018C6.66617 4.6611 7.31638 4.44596 8.35429 4.33351C9.40624 4.21954 10.7647 4.21851 12.6562 4.21851V2.71851ZM4.40625 12.4685C4.40625 10.5769 4.40728 9.2185 4.52125 8.16655C4.6337 7.12864 4.84884 6.47842 5.21793 5.97042L4.0044 5.08874C3.41857 5.89506 3.15626 6.83944 3.02998 8.00498C2.90522 9.15648 2.90625 10.6103 2.90625 12.4685H4.40625ZM5.27648 3.81666C4.78834 4.17132 4.35906 4.6006 4.0044 5.08874L5.21793 5.97042C5.48007 5.60962 5.79736 5.29232 6.15816 5.03018L5.27648 3.81666ZM15.9406 8.22242C15.9572 8.21978 15.9735 8.21851 15.9897 8.21851V6.71851C15.8942 6.71851 15.7989 6.72607 15.7046 6.74111L15.9406 8.22242ZM15.9897 8.21851C16.0058 8.21851 16.0222 8.21978 16.0388 8.22242L16.2748 6.74111C16.1804 6.72607 16.0851 6.71851 15.9897 6.71851V8.21851ZM16.7397 8.13517V7.46851H15.2397V8.13517H16.7397ZM9.0378 18.1957C9.13217 18.2108 9.22744 18.2183 9.32292 18.2183L9.32292 16.7183C9.30677 16.7183 9.29041 16.7171 9.27381 16.7144L9.0378 18.1957ZM9.32292 18.2183C9.4184 18.2183 9.51367 18.2108 9.60804 18.1957L9.37202 16.7144C9.35542 16.7171 9.33907 16.7183 9.32292 16.7183L9.32292 18.2183ZM8.57292 16.8017V17.4683H10.0729V16.8017H8.57292Z" fill="#2C52F5"/>
</svg>
