<svg width="15" height="15" viewBox="0 0 15 15" fill="none" xmlns="http://www.w3.org/2000/svg">
<path d="M13.445 7.54626V11.0463C13.445 11.2203 13.3759 11.3872 13.2528 11.5103C13.1298 11.6334 12.9628 11.7025 12.7888 11.7025H9.2888C9.11475 11.7025 8.94783 11.6334 8.82476 11.5103C8.70169 11.3872 8.63255 11.2203 8.63255 11.0463C8.63255 10.8722 8.70169 10.7053 8.82476 10.5822C8.94783 10.4592 9.11475 10.39 9.2888 10.39H11.2029L7.53879 6.72595L5.81559 8.4497C5.75462 8.51088 5.68218 8.55942 5.60241 8.59255C5.52264 8.62567 5.43712 8.64272 5.35075 8.64272C5.26438 8.64272 5.17885 8.62567 5.09909 8.59255C5.01932 8.55942 4.94687 8.51088 4.8859 8.4497L0.948404 4.5122C0.82512 4.38892 0.755859 4.22171 0.755859 4.04736C0.755859 3.96103 0.772863 3.87554 0.8059 3.79579C0.838937 3.71603 0.88736 3.64356 0.948404 3.58251C1.00945 3.52147 1.08192 3.47305 1.16168 3.44001C1.24143 3.40697 1.32692 3.38997 1.41325 3.38997C1.5876 3.38997 1.75481 3.45923 1.87809 3.58251L5.35129 7.05408L7.0745 5.33033C7.13547 5.26915 7.20791 5.2206 7.28768 5.18748C7.36745 5.15436 7.45297 5.13731 7.53934 5.13731C7.62571 5.13731 7.71124 5.15436 7.791 5.18748C7.87077 5.2206 7.94322 5.26915 8.00419 5.33033L12.1325 9.46033V7.54626C12.1325 7.37222 12.2017 7.2053 12.3248 7.08222C12.4478 6.95915 12.6147 6.89001 12.7888 6.89001C12.9628 6.89001 13.1298 6.95915 13.2528 7.08222C13.3759 7.2053 13.445 7.37222 13.445 7.54626Z" fill="#F43F5E"/>
</svg>
