<svg width="21" height="19" viewBox="0 0 21 19" fill="none" xmlns="http://www.w3.org/2000/svg">
<path d="M18.1503 4.10227C18.5405 4.97538 18.7058 6.16554 18.9899 8.21159C19.4261 11.352 19.6442 12.9223 19.1647 14.1418C18.7437 15.2124 17.9664 16.1051 16.9639 16.6694C15.8219 17.3121 14.2366 17.3121 11.066 17.3121H9.44182C6.27122 17.3121 4.68592 17.3121 3.54395 16.6694C2.54141 16.1051 1.76412 15.2124 1.34314 14.1418C0.863614 12.9223 1.0817 11.352 1.51787 8.21159C1.78395 6.29582 1.94581 5.13042 2.28563 4.27306M18.1503 4.10227C18.0741 3.93178 17.9893 3.77338 17.8935 3.62306C17.3762 2.81221 16.636 2.16776 15.7618 1.76697C14.7696 1.31213 13.5351 1.31213 11.066 1.31213H9.44181C6.97276 1.31213 5.73823 1.31213 4.74607 1.76697C3.87177 2.16776 3.13163 2.81221 2.61437 3.62306C2.4872 3.8224 2.37961 4.03595 2.28563 4.27306M18.1503 4.10227L18.0618 4.19081L17.2036 5.04893C13.8703 8.38227 12.2036 10.0489 10.1326 10.0489C8.0615 10.0489 6.39484 8.38227 3.0615 5.04893L2.28563 4.27306" stroke="#C2C2C2" stroke-width="1.5"/>
</svg>
