<svg width="9" height="16" viewBox="0 0 9 16" fill="none" xmlns="http://www.w3.org/2000/svg">
<path d="M7.91157 13.5868C8.08769 13.763 8.18664 14.0018 8.18664 14.2509C8.18664 14.5 8.08769 14.7388 7.91157 14.915C7.73545 15.0911 7.49658 15.19 7.24751 15.19C6.99844 15.19 6.75957 15.0911 6.58345 14.915L0.333448 8.66496C0.246048 8.57786 0.176701 8.47437 0.129383 8.36041C0.0820658 8.24646 0.0577087 8.12428 0.0577087 8.00089C0.0577087 7.87751 0.0820658 7.75533 0.129383 7.64138C0.176701 7.52742 0.246048 7.42393 0.333448 7.33683L6.58345 1.08683C6.75957 0.910711 6.99844 0.811768 7.24751 0.811768C7.49658 0.811768 7.73545 0.910711 7.91157 1.08683C8.08769 1.26295 8.18664 1.50182 8.18664 1.75089C8.18664 1.99997 8.08769 2.23884 7.91157 2.41496L2.32642 8.00011L7.91157 13.5868Z" fill="#5DBF96"/>
</svg>
