<svg width="87" height="89" viewBox="0 0 87 89" fill="none" xmlns="http://www.w3.org/2000/svg">
<path opacity="0.23" d="M65.8208 69.2372C62.3572 71.4462 58.7286 72.8129 54.9352 73.3374C51.111 73.8138 47.3342 73.5156 43.6048 72.4428C39.8447 71.3219 36.2895 69.4613 32.9392 66.8609C29.5583 64.2124 26.5793 60.8677 24.0022 56.8268C21.4251 52.7859 19.64 48.7136 18.647 44.6099C17.702 40.4755 17.5142 36.4673 18.0836 32.5852C18.653 28.7031 19.9755 25.1528 22.0509 21.9344C24.1744 18.6853 26.992 15.9409 30.5037 13.7013C35.2662 10.664 40.2491 9.24557 45.4523 9.44607C50.673 9.56779 55.3702 11.3092 59.5439 14.6702L53.9001 22.5329C50.9703 20.2734 47.8534 19.0469 44.5493 18.8532C41.2933 18.6289 38.1981 19.4525 35.2636 21.3239C32.3292 23.1954 30.2116 25.7641 28.9107 29.0299C27.6274 32.2169 27.2546 35.7706 27.7923 39.6909C28.3301 43.6113 29.8569 47.5438 32.3726 51.4885C34.8884 55.4332 37.8015 58.5154 41.1119 60.7351C44.3917 62.9067 47.7625 64.1068 51.2241 64.3353C54.6551 64.5157 57.8859 63.6394 60.9166 61.7066C63.8991 59.8045 65.9753 57.3299 67.145 54.2831C68.3322 51.1574 68.5345 47.8139 67.7521 44.2526L77.2616 42.4512C78.1095 45.9031 78.207 49.2922 77.5539 52.6186C76.9008 55.945 75.5955 59.0445 73.6378 61.9171C71.6496 64.7417 69.0439 67.1817 65.8208 69.2372ZM23.0229 68.8203L19.4794 63.264L51.6621 42.7392L55.2057 48.2954L23.0229 68.8203ZM16.258 58.2129L12.6685 52.5846L44.8512 32.0597L48.4408 37.6881L16.258 58.2129Z" fill="white"/>
</svg>
