<svg width="20" height="23" viewBox="0 0 20 23" fill="none" xmlns="http://www.w3.org/2000/svg">
<path d="M4.45492 21.0674L4.68668 20.3541L4.45492 21.0674ZM1.24472 17.8572L1.95801 17.6255L1.24472 17.8572ZM18.7553 17.8572L18.042 17.6255L18.7553 17.8572ZM15.5451 21.0674L15.3133 20.3541L15.5451 21.0674ZM15.5451 7.55685L15.3133 8.27014L15.5451 7.55685ZM18.7553 10.767L18.042 10.9988L18.7553 10.767ZM4.45492 7.55685L4.68668 8.27014L4.45492 7.55685ZM1.24472 10.767L1.95801 10.9988L1.24472 10.767ZM8 8.06213H12V6.56213H8V8.06213ZM12 20.5621H8V22.0621H12V20.5621ZM8 20.5621C6.08034 20.5621 5.29839 20.5529 4.68668 20.3541L4.22315 21.7807C5.11777 22.0714 6.19709 22.0621 8 22.0621V20.5621ZM0.25 14.3121C0.25 16.115 0.240747 17.1944 0.531425 18.089L1.95801 17.6255C1.75925 17.0137 1.75 16.2318 1.75 14.3121H0.25ZM4.68668 20.3541C3.39282 19.9337 2.37841 18.9193 1.95801 17.6255L0.531425 18.089C1.1002 19.8395 2.47263 21.2119 4.22315 21.7807L4.68668 20.3541ZM18.25 14.3121C18.25 16.2318 18.2407 17.0137 18.042 17.6255L19.4686 18.089C19.7593 17.1944 19.75 16.115 19.75 14.3121H18.25ZM12 22.0621C13.8029 22.0621 14.8822 22.0714 15.7768 21.7807L15.3133 20.3541C14.7016 20.5529 13.9197 20.5621 12 20.5621V22.0621ZM18.042 17.6255C17.6216 18.9193 16.6072 19.9337 15.3133 20.3541L15.7768 21.7807C17.5274 21.2119 18.8998 19.8395 19.4686 18.089L18.042 17.6255ZM19.75 14.3121C19.75 12.5092 19.7593 11.4299 19.4686 10.5353L18.042 10.9988C18.2407 11.6105 18.25 12.3925 18.25 14.3121H19.75ZM15.3133 8.27014C16.6072 8.69055 17.6216 9.70495 18.042 10.9988L19.4686 10.5353C18.8998 8.78477 17.5274 7.41234 15.7768 6.84356L15.3133 8.27014ZM1.75 14.3121C1.75 12.3925 1.75925 11.6105 1.95801 10.9988L0.531425 10.5353C0.240747 11.4299 0.25 12.5092 0.25 14.3121H1.75ZM4.22315 6.84356C2.47263 7.41234 1.1002 8.78477 0.531425 10.5353L1.95801 10.9988C2.37841 9.70495 3.39282 8.69054 4.68668 8.27014L4.22315 6.84356ZM14.25 6.31213V7.31213H15.75V6.31213H14.25ZM5.75 7.31213V6.31213H4.25V7.31213H5.75ZM10 2.06213C12.3472 2.06213 14.25 3.96492 14.25 6.31213H15.75C15.75 3.1365 13.1756 0.562134 10 0.562134V2.06213ZM10 0.562134C6.82436 0.562134 4.25 3.1365 4.25 6.31213H5.75C5.75 3.96492 7.65279 2.06213 10 2.06213V0.562134ZM7.25 14.3121C7.25 15.8309 8.48122 17.0621 10 17.0621V15.5621C9.30964 15.5621 8.75 15.0025 8.75 14.3121H7.25ZM10 17.0621C11.5188 17.0621 12.75 15.8309 12.75 14.3121H11.25C11.25 15.0025 10.6904 15.5621 10 15.5621V17.0621ZM12.75 14.3121C12.75 12.7934 11.5188 11.5621 10 11.5621V13.0621C10.6904 13.0621 11.25 13.6218 11.25 14.3121H12.75ZM10 11.5621C8.48122 11.5621 7.25 12.7934 7.25 14.3121H8.75C8.75 13.6218 9.30964 13.0621 10 13.0621V11.5621ZM8 6.56213C6.58853 6.56213 5.6278 6.55952 4.8754 6.68627L5.1246 8.16543C5.7222 8.06475 6.52815 8.06213 8 8.06213V6.56213ZM4.8754 6.68627C4.64772 6.72463 4.43257 6.77551 4.22315 6.84356L4.68668 8.27014C4.81685 8.22785 4.95935 8.19327 5.1246 8.16543L4.8754 6.68627ZM4.25 7.31213V7.42585H5.75V7.31213H4.25ZM12 8.06213C13.4719 8.06213 14.2778 8.06475 14.8754 8.16543L15.1246 6.68627C14.3722 6.55952 13.4115 6.56213 12 6.56213V8.06213ZM14.8754 8.16543C15.0407 8.19327 15.1831 8.22785 15.3133 8.27014L15.7768 6.84356C15.5674 6.77551 15.3523 6.72463 15.1246 6.68627L14.8754 8.16543ZM14.25 7.31213V7.42585H15.75V7.31213H14.25Z" fill="#FFFFFF"/>
</svg>
