<svg width="19" height="19" viewBox="0 0 78 51" fill="none" xmlns="http://www.w3.org/2000/svg">
  <g clip-path="url(#clip0_306_3712)">
    <path fill-rule="evenodd" clip-rule="evenodd" d="M13.6321 19.1053C12.3317 19.9491 11.4743 20.7641 10.9347 21.7883C10.5731 22.4744 10.3218 23.2132 10.19 23.9775C9.78186 26.344 11.0061 28.8303 13.4545 33.803C15.9029 38.7757 17.1271 41.2621 19.2517 42.3815C19.9378 42.7431 20.6766 42.9944 21.4409 43.1262C23.8074 43.5343 26.2937 42.3101 31.2664 39.8617C32.379 39.3139 33.3671 38.8274 34.2433 38.3784L34.1975 38.2854C33.6411 37.1555 33.3021 36.4673 33.1038 35.8273C32.0141 32.31 33.3131 28.4911 36.3215 26.3678C36.8689 25.9814 37.5571 25.6426 38.6871 25.0864L38.7801 25.0406C38.3595 24.1506 37.8731 23.1627 37.3254 22.0504C34.877 17.0777 33.6525 14.5907 31.5279 13.4713C30.8418 13.1097 30.103 12.8584 29.3387 12.7266C28.1979 12.5299 27.0291 12.7125 25.5674 13.2287L26.1338 14.3789C26.6747 15.4775 26.2226 16.8067 25.124 17.3476C24.0254 17.8885 22.6963 17.4364 22.1553 16.3378L21.5042 15.0154C20.8869 15.3147 20.2256 15.6403 19.5132 15.9911C18.8008 16.3419 18.1394 16.6675 17.5258 16.9743L18.1769 18.2967C18.7178 19.3953 18.2657 20.7244 17.1671 21.2653C16.0685 21.8063 14.7394 21.3542 14.1985 20.2556L13.6321 19.1053ZM16.8002 27.2128C17.5326 26.8521 17.834 25.9661 17.4734 25.2337C17.1128 24.5012 16.2267 24.1999 15.4943 24.5605C14.7619 24.9211 14.4605 25.8072 14.8211 26.5396C15.1817 27.272 16.0678 27.5734 16.8002 27.2128ZM20.0852 30.5382C20.4458 31.2706 20.1444 32.1567 19.412 32.5173C18.6796 32.878 17.7935 32.5766 17.4329 31.8442C17.0723 31.1117 17.3737 30.2257 18.1061 29.8651C18.8385 29.5044 19.7246 29.8058 20.0852 30.5382ZM23.4309 23.948C24.1633 23.5873 24.4647 22.7013 24.1041 21.9689C23.7435 21.2365 22.8574 20.9351 22.125 21.2957C21.3926 21.6563 21.0912 22.5424 21.4518 23.2748C21.8124 24.0072 22.6985 24.3086 23.4309 23.948ZM26.7159 27.2734C27.0766 28.0059 26.7752 28.8919 26.0428 29.2525C25.3103 29.6132 24.4243 29.3118 24.0637 28.5794C23.703 27.847 24.0044 26.9609 24.7368 26.6003C25.4692 26.2396 26.3553 26.541 26.7159 27.2734ZM28.6546 34.5571C29.387 34.1965 29.6884 33.3104 29.3278 32.578C28.9672 31.8456 28.0811 31.5442 27.3487 31.9048C26.6163 32.2655 26.3149 33.1515 26.6755 33.8839C27.0361 34.6164 27.9222 34.9177 28.6546 34.5571ZM30.7348 18.7041C31.0955 19.4365 30.7941 20.3226 30.0616 20.6832C29.3292 21.0438 28.4432 20.7424 28.0825 20.01C27.7219 19.2776 28.0233 18.3915 28.7557 18.0309C29.4881 17.6703 30.3742 17.9717 30.7348 18.7041ZM32.6735 25.9878C33.4059 25.6271 33.7073 24.7411 33.3467 24.0087C32.986 23.2762 32.1 22.9748 31.3676 23.3355C30.6352 23.6961 30.3338 24.5822 30.6944 25.3146C31.055 26.047 31.9411 26.3484 32.6735 25.9878ZM22.6971 35.8428C23.0577 36.5752 22.7563 37.4613 22.0239 37.8219C21.2915 38.1825 20.4054 37.8811 20.0448 37.1487C19.6841 36.4163 19.9855 35.5303 20.7179 35.1696C21.4504 34.809 22.3364 35.1104 22.6971 35.8428Z" fill="#FAFAFA"/>
    <path d="M39.6871 27.0655C38.4799 27.6601 37.9771 27.9131 37.6 28.1793C35.3765 29.7487 34.4163 32.5714 35.2218 35.1711C35.3584 35.612 35.6026 36.1191 36.1968 37.3265C38.0443 36.2613 39.1833 35.3201 39.8449 34.0645C40.2065 33.3784 40.4578 32.6396 40.5896 31.8753C40.8308 30.4767 40.5019 29.0363 39.6871 27.0655Z" fill="#FAFAFA"/>
    <path d="M15.2234 14.808C14.953 14.2587 14.2884 14.0326 13.7391 14.3031C13.1898 14.5735 12.9637 15.2381 13.2342 15.7874L15.1931 19.7658C15.4635 20.3151 16.1281 20.5412 16.6774 20.2707C17.2267 20.0003 17.4528 19.3357 17.1823 18.7864L15.2234 14.808Z" fill="#FAFAFA"/>
    <path d="M23.1803 10.8902C22.9098 10.3409 22.2453 10.1149 21.696 10.3853C21.1467 10.6558 20.9206 11.3203 21.1911 11.8696L23.15 15.8481C23.4204 16.3974 24.085 16.6234 24.6343 16.353C25.1836 16.0825 25.4096 15.418 25.1392 14.8686L23.1803 10.8902Z" fill="#FAFAFA"/>
  </g>
  <g clip-path="url(#clip1_306_3712)">
    <path fill-rule="evenodd" clip-rule="evenodd" d="M59.1502 5.37635C50.4928 3.93818 42.3087 9.79054 40.8705 18.4479C39.4324 27.1053 45.2847 35.2894 53.9421 36.7276C62.5995 38.1657 70.7836 32.3134 72.2218 23.656C73.6599 14.9986 67.8076 6.81451 59.1502 5.37635ZM58.6087 15.4009C58.7091 14.7968 58.3008 14.2259 57.6968 14.1255C57.0928 14.0252 56.5218 14.4335 56.4214 15.0375L55.4026 21.1704C55.3254 21.6353 55.0735 22.0531 54.6984 22.3384L52.2025 24.2366C51.7152 24.6072 51.6206 25.3028 51.9912 25.7901C52.3619 26.2775 53.0574 26.3721 53.5448 26.0014L56.0407 24.1032C56.8658 23.4756 57.4201 22.5565 57.5899 21.5338L58.6087 15.4009Z" fill="#FAFAFA"/>
    <path d="M50.2738 4.40476C50.8081 4.10579 50.9989 3.43027 50.6999 2.89594C50.401 2.36161 49.7254 2.17082 49.1911 2.46978L45.0612 4.78059C44.5268 5.07956 44.336 5.75508 44.635 6.28941C44.934 6.82374 45.6095 7.01454 46.1438 6.71557L50.2738 4.40476Z" fill="#FAFAFA"/>
    <path d="M69.5141 5.84582C69.1051 5.39015 68.4042 5.35229 67.9485 5.76126C67.4928 6.17023 67.455 6.87116 67.864 7.32682L71.025 10.8488C71.4339 11.3045 72.1349 11.3423 72.5905 10.9334C73.0462 10.5244 73.0841 9.82347 72.6751 9.3678L69.5141 5.84582Z" fill="#FAFAFA"/>
  </g>
  <defs>
    <clipPath id="clip0_306_3712">
      <rect width="35.4763" height="35.4763" fill="white" transform="translate(0.987305 18.522) rotate(-26.2144)"/>
    </clipPath>
    <clipPath id="clip1_306_3712">
      <rect width="35.4763" height="35.4763" fill="white" transform="translate(42.0156 0.282227) rotate(9.4318)"/>
    </clipPath>
  </defs>
</svg>
