<svg width="116" height="116" viewBox="0 0 116 116" fill="none" xmlns="http://www.w3.org/2000/svg">
<path fill-rule="evenodd" clip-rule="evenodd" d="M57.7441 115.275C89.4441 115.275 115.142 89.5775 115.142 57.8775C115.142 26.1775 89.4441 0.479614 57.7441 0.479614C26.0441 0.479614 0.346191 26.1775 0.346191 57.8775C0.346191 89.5775 26.0441 115.275 57.7441 115.275ZM89.6503 43.5296C91.2362 41.7583 91.0858 39.0368 89.3145 37.4509C87.5432 35.8651 84.8217 36.0154 83.2358 37.7867L63.8975 59.3866C59.9789 63.7634 57.34 66.6954 55.0838 68.5918C52.9345 70.3983 51.6722 70.7921 50.5694 70.7921C49.4666 70.7921 48.2042 70.3983 46.0549 68.5918C43.7987 66.6954 41.1598 63.7634 37.2413 59.3866L32.2524 53.8143C30.6665 52.043 27.945 51.8926 26.1737 53.4785C24.4024 55.0644 24.252 57.7859 25.8379 59.5572L31.0399 65.3675C34.6896 69.4443 37.7337 72.8447 40.5153 75.1826C43.4577 77.6557 46.6315 79.4018 50.5694 79.4018C54.5073 79.4018 57.681 77.6558 60.6235 75.1826C63.405 72.8447 66.4492 69.4443 70.0988 65.3676L89.6503 43.5296Z" fill="#248A88"/>
</svg>
