<svg width="19" height="24" viewBox="0 0 19 24" fill="none" xmlns="http://www.w3.org/2000/svg">
<g clip-path="url(#clip0_575_5399)">
<path d="M14.8956 23.6095H3.74439C1.66168 22.8919 0.216459 21.6202 0.19977 19.2504C0.169731 14.4876 0.146367 9.72469 0.209783 4.96181C0.24316 2.39179 1.86528 0.793041 4.42194 0.652858C5.62017 0.586104 6.82508 0.689573 8.01997 0.616143C8.99457 0.556065 9.39176 0.833093 9.34169 1.88446C9.25825 3.52327 9.29163 5.16875 9.32834 6.81089C9.37507 8.71003 10.3964 9.75139 12.2822 9.78477C14.3549 9.82482 16.4276 9.78477 18.5003 9.78477V20.3152C17.7694 21.9339 16.6312 23.0988 14.8923 23.6061L14.8956 23.6095ZM9.33836 14.5476C9.48188 13.8067 9.59536 13.3094 9.15812 12.9222C8.96787 12.752 8.72088 12.8087 8.56735 12.9723C8.16683 13.3995 8.35708 13.8734 8.48057 14.3574C8.87776 15.8994 8.23692 16.9641 6.92521 17.7451C6.54137 17.9721 5.85715 18.2725 6.251 18.8232C6.62148 19.3439 7.15885 18.9501 7.47259 18.5395C8.47723 17.2111 9.69215 16.7205 11.3143 17.338C11.7448 17.5015 12.4457 17.5349 12.4758 16.8607C12.5025 16.32 11.8817 16.3033 11.4478 16.34C9.95249 16.4668 9.4485 15.6124 9.33502 14.5476H9.33836Z" fill="#D22B35"/>
<path d="M17.8162 7.97248C15.9404 7.97248 14.1047 7.98583 12.2723 7.9658C11.6682 7.95913 11.2009 7.66875 11.1942 6.98786C11.1775 5.10874 11.1875 3.22963 11.1875 1.33716C13.4271 3.57675 15.5566 5.70953 17.8162 7.97248Z" fill="#D22B35"/>
</g>
<defs>
<clipPath id="clip0_575_5399">
<rect width="18.3306" height="23" fill="white" transform="translate(0.169678 0.609375)"/>
</clipPath>
</defs>
</svg>
