<svg width="25" height="25" viewBox="0 0 25 25" fill="none" xmlns="http://www.w3.org/2000/svg">
<path d="M4.79699 4.58143C4.86763 4.51078 4.90296 4.47546 4.93407 4.44686C5.69923 3.74379 6.87534 3.74379 7.6405 4.44686C7.67162 4.47546 7.70694 4.51078 7.77758 4.58143L9.23578 6.03962C10.0378 6.84168 10.2672 8.05291 9.81398 9.0927C9.36074 10.1325 9.59013 11.3437 10.3922 12.1458L12.789 14.5426C13.591 15.3446 14.8023 15.574 15.8421 15.1208C16.8819 14.6675 18.0931 14.8969 18.8951 15.699L20.3533 17.1572C20.424 17.2278 20.4593 17.2631 20.4879 17.2943C21.191 18.0594 21.191 19.2355 20.4879 20.0007C20.4593 20.0318 20.424 20.0671 20.3533 20.1378L19.467 21.0241C18.7452 21.7459 17.7047 22.0489 16.7082 21.8275C9.91861 20.3187 4.61608 15.0162 3.10728 8.22656C2.88585 7.23009 3.18885 6.18956 3.91064 5.46777L4.79699 4.58143Z" stroke="#C0BEC9" stroke-width="1.5"/>
</svg>