<svg width="15" height="15" viewBox="0 0 15 15" fill="none" xmlns="http://www.w3.org/2000/svg">
<path d="M13.3944 3.90027V7.40027C13.3944 7.57432 13.3252 7.74124 13.2022 7.86431C13.0791 7.98738 12.9122 8.05652 12.7381 8.05652C12.5641 8.05652 12.3972 7.98738 12.2741 7.86431C12.151 7.74124 12.0819 7.57432 12.0819 7.40027V5.48621L7.95243 9.61621C7.89146 9.67739 7.81902 9.72593 7.73925 9.75905C7.65948 9.79217 7.57396 9.80922 7.48759 9.80922C7.40122 9.80922 7.3157 9.79217 7.23593 9.75905C7.15616 9.72593 7.08371 9.67739 7.02275 9.61621L5.30064 7.89246L1.82743 11.3646C1.70415 11.4879 1.53694 11.5571 1.36259 11.5571C1.18824 11.5571 1.02103 11.4879 0.897745 11.3646C0.774461 11.2413 0.7052 11.0741 0.7052 10.8997C0.7052 10.7254 0.774461 10.5582 0.897745 10.4349L4.83525 6.49738C4.89621 6.4362 4.96866 6.38766 5.04843 6.35453C5.12819 6.32141 5.21372 6.30436 5.30009 6.30436C5.38646 6.30436 5.47198 6.32141 5.55175 6.35453C5.63152 6.38766 5.70396 6.4362 5.76493 6.49738L7.48814 8.22058L11.1522 4.55652H9.23814C9.06409 4.55652 8.89717 4.48738 8.7741 4.36431C8.65103 4.24124 8.58189 4.07432 8.58189 3.90027C8.58189 3.72622 8.65103 3.5593 8.7741 3.43623C8.89717 3.31316 9.06409 3.24402 9.23814 3.24402H12.7381C12.9122 3.24402 13.0791 3.31316 13.2022 3.43623C13.3252 3.5593 13.3944 3.72622 13.3944 3.90027Z" fill="#D3D3D3"/>
</svg>
