<svg width="25" height="25" viewBox="0 0 25 25" fill="none" xmlns="http://www.w3.org/2000/svg">
<path d="M16.2058 12.6265C15.7916 12.6265 15.4558 12.9623 15.4558 13.3765C15.4558 13.7907 15.7916 14.1265 16.2058 14.1265H18.9331C19.3473 14.1265 19.6831 13.7907 19.6831 13.3765C19.6831 12.9623 19.3473 12.6265 18.9331 12.6265H16.2058Z" fill="white"/>
<path fill-rule="evenodd" clip-rule="evenodd" d="M20.2169 3.89029C20.2943 4.33425 20.313 4.86184 20.3183 5.46546C20.405 5.51071 20.4901 5.55887 20.5738 5.61014C21.3475 6.08426 21.998 6.73476 22.4721 7.50845C22.9941 8.36031 23.184 9.34758 23.2624 10.6024C23.3194 11.5153 23.3194 12.6256 23.3194 13.9894V14.0176C23.3194 14.7996 23.3194 15.4962 23.3091 16.1162C23.2771 18.0441 23.1523 19.4072 22.4721 20.5172C21.998 21.2909 21.3475 21.9414 20.5738 22.4155C19.835 22.8683 18.9969 23.07 17.9733 23.1674C16.9692 23.2628 15.7122 23.2628 14.1089 23.2628H11.0301C9.42671 23.2628 8.16971 23.2628 7.16554 23.1674C6.14199 23.07 5.30389 22.8683 4.56506 22.4155C3.79137 21.9414 3.14087 21.2909 2.66675 20.5172C2.214 19.7784 2.01222 18.9403 1.9149 17.9167C1.81942 16.9125 1.81942 15.6556 1.81943 14.0522L1.81951 13.5265C1.80633 13.0323 1.81038 12.4798 1.81474 11.8842C1.81704 11.5702 1.81943 11.2442 1.81943 10.9085L1.81943 10.8651C1.81942 9.15286 1.81942 7.80903 1.93025 6.7425C2.0433 5.6547 2.27838 4.76744 2.80856 4.00667C3.12888 3.54704 3.51749 3.14155 3.96081 2.80576C4.69912 2.24652 5.56309 1.99792 6.61671 1.87891C7.64464 1.7628 8.9378 1.76281 10.5759 1.76282L16.044 1.76282C16.8425 1.76278 17.5194 1.76275 18.059 1.83839C18.6353 1.91917 19.1643 2.09888 19.5875 2.5401C19.9548 2.92308 20.1288 3.3851 20.2169 3.89029ZM15.9912 3.26282C16.8569 3.26282 17.4276 3.26455 17.8508 3.32387C18.2491 3.3797 18.404 3.47321 18.505 3.57844C18.5983 3.67577 18.6825 3.8227 18.7392 4.14788C18.7771 4.3653 18.7978 4.63105 18.8087 4.97101C18.396 4.89546 17.9505 4.84891 17.4653 4.81897C16.5553 4.76282 15.4494 4.76282 14.0926 4.76282H11.0301C9.42669 4.76282 8.16972 4.76281 7.16554 4.85829C6.14199 4.95561 5.30389 5.15739 4.56506 5.61014C4.16678 5.85421 3.80115 6.14502 3.47541 6.47531C3.58517 5.74798 3.76492 5.25787 4.0392 4.8643C4.27078 4.532 4.55019 4.24106 4.8665 4.00147C5.30422 3.66991 5.86707 3.47312 6.78507 3.36943C7.71902 3.26394 8.9275 3.26282 10.6225 3.26282H15.9912ZM5.34881 6.8891C5.81234 6.60505 6.39377 6.43843 7.30752 6.35155C8.23243 6.26361 9.41819 6.26282 11.0694 6.26282H14.0694C15.4541 6.26282 16.5143 6.26314 17.3729 6.31612C18.2307 6.36905 18.8304 6.47224 19.3032 6.65177C19.4802 6.71901 19.6404 6.79742 19.7901 6.8891C20.3619 7.23954 20.8427 7.72034 21.1932 8.2922C21.4398 8.69465 21.5969 9.18382 21.6911 9.8992H16.2058C14.2853 9.8992 12.7285 11.456 12.7285 13.3765C12.7285 15.2969 14.2853 16.8537 16.2058 16.8537H21.7888C21.731 18.3141 21.5716 19.1158 21.1932 19.7334C20.8427 20.3053 20.3619 20.7861 19.7901 21.1365C19.3265 21.4206 18.7451 21.5872 17.8313 21.6741C16.9064 21.762 15.7207 21.7628 14.0694 21.7628H11.0694C9.41819 21.7628 8.23243 21.762 7.30752 21.6741C6.39377 21.5872 5.81234 21.4206 5.34881 21.1365C4.77695 20.7861 4.29615 20.3053 3.94571 19.7334C3.66166 19.2699 3.49504 18.6885 3.40816 17.7747C3.32022 16.8498 3.31943 15.6641 3.31943 14.0128C3.31943 12.3616 3.32022 11.1758 3.40816 10.2509C3.49504 9.33716 3.66166 8.75573 3.94571 8.2922C4.29615 7.72034 4.77695 7.23954 5.34881 6.8891ZM14.2285 13.3765C14.2285 12.2845 15.1138 11.3992 16.2058 11.3992H21.797C21.8192 12.1231 21.8194 12.9772 21.8194 14.0128C21.8194 14.4967 21.8194 14.9418 21.8171 15.3537H16.2058C15.1138 15.3537 14.2285 14.4685 14.2285 13.3765Z" fill="white"/>
</svg>
