<svg width="23" height="24" viewBox="0 0 23 24" fill="none" xmlns="http://www.w3.org/2000/svg">
<g clip-path="url(#clip0_575_5406)">
<path d="M13.6494 0.623776L1.32942 3.06753C1.12146 3.10885 0.971924 3.30651 0.971924 3.52753V20.6913C0.971924 20.9123 1.12146 21.1099 1.32942 21.1513L13.6494 23.595C13.6769 23.6004 13.7044 23.6094 13.7319 23.6094C13.8333 23.6094 13.9279 23.5771 14.0069 23.5088C14.1083 23.4207 14.1719 23.286 14.1719 23.1494V1.0694C14.1719 0.932838 14.1083 0.798073 14.0069 0.710026C13.9055 0.621979 13.7783 0.59862 13.6494 0.623776ZM15.0519 3.3694V6.5894H15.9319V7.5094H15.0519V9.8094H15.9319V10.7294H15.0519V13.0294H15.9319V13.9494H15.0519V16.7094H15.9319V17.6294H15.0519V20.8494H21.6519C22.1366 20.8494 22.5319 20.4361 22.5319 19.9294V4.2894C22.5319 3.78268 22.1366 3.3694 21.6519 3.3694H15.0519ZM16.8119 6.5894H20.3319V7.5094H16.8119V6.5894ZM3.91442 7.82565H6.16942L7.35192 10.3988C7.44474 10.6018 7.52724 10.8516 7.59942 11.1319H7.61317C7.65958 10.9648 7.74896 10.7024 7.87442 10.37L9.18067 7.82565H11.2432L8.78192 12.0807L11.3119 16.4219H9.12567L7.69567 13.6188C7.64239 13.5146 7.58739 13.3223 7.53067 13.0438H7.51692C7.48942 13.1749 7.42411 13.3798 7.32442 13.6475L5.89442 16.4219H3.69442L6.32067 12.1238L3.91442 7.82565ZM16.8119 9.8094H20.3319V10.7294H16.8119V9.8094ZM16.8119 13.0294H20.3319V13.9494H16.8119V13.0294ZM16.8119 16.7094H20.3319V17.6294H16.8119V16.7094Z" fill="#21A366"/>
</g>
<defs>
<clipPath id="clip0_575_5406">
<rect width="22" height="23" fill="white" transform="translate(0.971924 0.609131)"/>
</clipPath>
</defs>
</svg>
