<svg width="36" height="36" viewBox="0 0 36 36" fill="none" xmlns="http://www.w3.org/2000/svg">
<path fill-rule="evenodd" clip-rule="evenodd" d="M18.8204 2.07837C20.9434 2.07836 22.6079 2.07836 23.9428 2.19394C25.3026 2.31167 26.4226 2.55552 27.4272 3.10408C28.8381 3.87449 29.9978 5.0342 30.7682 6.44508C31.3168 7.44971 31.5606 8.56967 31.6784 9.92948C31.794 11.2644 31.794 12.9289 31.7939 15.0519V19.651C31.7939 19.7369 31.7939 19.7891 31.7935 19.8346C31.7621 22.7404 30.2538 25.2901 27.9882 26.7694C26.6948 27.614 25.153 28.1112 23.499 28.129C23.4538 28.1295 23.4018 28.1295 23.3167 28.1295L23.2996 28.1295L23.2978 28.1295C23.2001 28.1301 23.1067 28.1698 23.0385 28.2398L22.5122 28.7866C21.5708 29.7648 20.7872 30.5789 20.0798 31.1382C19.334 31.7278 18.5413 32.1433 17.5752 32.1433C16.6091 32.1433 15.8164 31.7278 15.0706 31.1382C14.3631 30.5789 13.5795 29.7647 12.6381 28.7865L12.113 28.241L12.1119 28.2398C12.0437 28.1698 11.9503 28.1301 11.8526 28.1295L11.8508 28.1295L11.8337 28.1295C11.8177 28.1295 11.8029 28.1295 11.7891 28.1295C11.7293 28.1295 11.6882 28.1294 11.6514 28.129C9.99735 28.1112 8.45564 27.614 7.16224 26.7694C4.89661 25.2901 3.3883 22.7404 3.35693 19.8346C3.35645 19.7893 3.35645 19.7373 3.35645 19.652V15.0519C3.35644 12.9289 3.35643 11.2644 3.47201 9.92948C3.58975 8.56967 3.83359 7.44971 4.38216 6.44508C5.15256 5.0342 6.31227 3.87449 7.72316 3.10408C8.72778 2.55552 9.84774 2.31167 11.2076 2.19394C12.5425 2.07836 14.207 2.07836 16.33 2.07837H18.8204ZM26.8957 24.8688C25.8642 23.224 24.0349 22.1305 21.9502 22.1305H13.2002C11.1155 22.1305 9.28624 23.224 8.25473 24.8688C8.28897 24.8921 8.32347 24.9151 8.3582 24.9378C9.31301 25.5613 10.4498 25.9284 11.675 25.9416C11.7069 25.942 11.7461 25.942 11.8421 25.942L11.8647 25.942C12.5487 25.9458 13.2025 26.224 13.6795 26.7142L13.6952 26.7304L14.1604 27.2137C15.1696 28.2622 15.8506 28.9663 16.4272 29.4222C16.979 29.8584 17.3004 29.9558 17.5752 29.9558C17.85 29.9558 18.1714 29.8584 18.7232 29.4222C19.2998 28.9663 19.9808 28.2622 20.99 27.2137L21.4552 26.7304L21.4709 26.7142C21.9479 26.224 22.6017 25.9458 23.2857 25.942L23.3083 25.942C23.3263 25.942 23.3423 25.942 23.3566 25.942C23.4187 25.942 23.4495 25.9419 23.4754 25.9416C24.7006 25.9284 25.8374 25.5613 26.7922 24.9378C26.8269 24.9151 26.8614 24.8921 26.8957 24.8688ZM17.5752 4.99504C13.7495 4.99504 10.6481 8.0964 10.6481 11.9221C10.6481 15.7478 13.7495 18.8492 17.5752 18.8492C21.4009 18.8492 24.5023 15.7478 24.5023 11.9221C24.5023 8.0964 21.4009 4.99504 17.5752 4.99504Z" fill="#2C52F5"/>
</svg>
