<svg width="23" height="23" viewBox="0 0 23 23" fill="none" xmlns="http://www.w3.org/2000/svg">
<path d="M15.3601 11.8419C14.9459 11.8419 14.6101 12.1777 14.6101 12.5919C14.6101 13.0061 14.9459 13.3419 15.3601 13.3419H18.0874C18.5016 13.3419 18.8374 13.0061 18.8374 12.5919C18.8374 12.1777 18.5016 11.8419 18.0874 11.8419H15.3601Z" fill="#2C52F5"/>
<path fill-rule="evenodd" clip-rule="evenodd" d="M19.3712 3.10574C19.4486 3.5497 19.4673 4.07729 19.4726 4.68091C19.5593 4.72616 19.6444 4.77433 19.7281 4.8256C20.5018 5.29972 21.1523 5.95021 21.6264 6.72391C22.1484 7.57577 22.3382 8.56304 22.4167 9.81787C22.4737 10.7307 22.4737 11.8411 22.4737 13.2048V13.233C22.4737 14.0151 22.4737 14.7117 22.4634 15.3316C22.4314 17.2595 22.3066 18.6227 21.6264 19.7326C21.1523 20.5063 20.5018 21.1568 19.7281 21.631C18.9893 22.0837 18.1512 22.2855 17.1276 22.3828C16.1235 22.4783 14.8665 22.4783 13.2632 22.4783H10.1844C8.58101 22.4783 7.32401 22.4783 6.31984 22.3828C5.29629 22.2855 4.45818 22.0837 3.71936 21.631C2.94567 21.1568 2.29517 20.5063 1.82105 19.7326C1.3683 18.9938 1.16652 18.1557 1.0692 17.1322C0.973717 16.128 0.973722 14.871 0.973728 13.2676L0.973808 12.7419C0.960631 12.2477 0.964677 11.6953 0.969041 11.0996C0.97134 10.7857 0.973728 10.4597 0.973728 10.1239L0.973728 10.0805C0.97372 8.36831 0.973714 7.02449 1.08455 5.95795C1.1976 4.87015 1.43268 3.98289 1.96285 3.22213C2.28317 2.76249 2.67179 2.357 3.1151 2.02121C3.85342 1.46198 4.71739 1.21337 5.77101 1.09436C6.79894 0.978257 8.0921 0.978266 9.73019 0.978276L15.1983 0.978273C15.9968 0.978238 16.6737 0.978209 17.2133 1.05384C17.7896 1.13463 18.3186 1.31434 18.7418 1.75555C19.1091 2.13853 19.2831 2.60055 19.3712 3.10574ZM15.1455 2.47828C16.0112 2.47828 16.5819 2.48 17.0051 2.53932C17.4034 2.59515 17.5583 2.68866 17.6592 2.7939C17.7526 2.89123 17.8368 3.03816 17.8935 3.36333C17.9314 3.58076 17.9521 3.84651 17.963 4.18647C17.5503 4.11092 17.1048 4.06437 16.6196 4.03443C15.7096 3.97827 14.6037 3.97827 13.2469 3.97828H10.1844C8.58098 3.97827 7.32402 3.97826 6.31984 4.07374C5.29629 4.17106 4.45818 4.37284 3.71936 4.8256C3.32108 5.06966 2.95544 5.36047 2.62971 5.69076C2.73947 4.96343 2.91922 4.47332 3.19349 4.07976C3.42507 3.74746 3.70448 3.45651 4.02079 3.21692C4.45852 2.88537 5.02137 2.68858 5.93937 2.58489C6.87332 2.47939 8.08179 2.47828 9.7768 2.47828H15.1455ZM4.50311 6.10456C4.96663 5.82051 5.54806 5.65389 6.46182 5.56701C7.38673 5.47907 8.57249 5.47828 10.2237 5.47828H13.2237C14.6083 5.47828 15.6686 5.4786 16.5272 5.53158C17.385 5.58451 17.9847 5.68769 18.4575 5.86723C18.6345 5.93447 18.7947 6.01288 18.9443 6.10456C19.5162 6.45499 19.997 6.9358 20.3474 7.50766C20.5941 7.9101 20.7512 8.39927 20.8454 9.11465H15.3601C13.4396 9.11465 11.8828 10.6715 11.8828 12.5919C11.8828 14.5124 13.4396 16.0692 15.3601 16.0692H20.9431C20.8853 17.5295 20.7259 18.3313 20.3474 18.9489C19.997 19.5208 19.5162 20.0016 18.9443 20.352C18.4808 20.636 17.8994 20.8027 16.9856 20.8895C16.0607 20.9775 14.875 20.9783 13.2237 20.9783H10.2237C8.57249 20.9783 7.38673 20.9775 6.46182 20.8895C5.54806 20.8027 4.96663 20.636 4.50311 20.352C3.93125 20.0016 3.45044 19.5208 3.10001 18.9489C2.81596 18.4854 2.64934 17.9039 2.56246 16.9902C2.47452 16.0653 2.47373 14.8795 2.47373 13.2283C2.47373 11.577 2.47452 10.3913 2.56246 9.46636C2.64934 8.55261 2.81596 7.97118 3.10001 7.50766C3.45044 6.9358 3.93125 6.45499 4.50311 6.10456ZM13.3828 12.5919C13.3828 11.4999 14.2681 10.6147 15.3601 10.6147H20.9513C20.9735 11.3386 20.9737 12.1927 20.9737 13.2283C20.9737 13.7122 20.9737 14.1573 20.9714 14.5692H15.3601C14.2681 14.5692 13.3828 13.6839 13.3828 12.5919Z" fill="#2C52F5"/>
</svg>
