<svg width="24" height="25" viewBox="0 0 24 25" fill="none" xmlns="http://www.w3.org/2000/svg">
<path d="M17.6733 10.4515C17.8557 10.0796 17.7021 9.63025 17.3302 9.44783C16.9583 9.26542 16.509 9.41901 16.3266 9.79089L14.8662 12.7679C14.4136 13.6907 13.0832 13.6456 12.6941 12.6944C11.8149 10.5453 8.80947 10.4435 7.78689 12.5281L6.32656 15.5052C6.14414 15.8771 6.29773 16.3264 6.66961 16.5088C7.0415 16.6912 7.49085 16.5377 7.67327 16.1658L9.1336 13.1887C9.58624 12.266 10.9166 12.311 11.3058 13.2623C12.1849 15.4114 15.1904 15.5132 16.2129 13.4285L17.6733 10.4515Z" fill="#2C52F5"/>
<path fill-rule="evenodd" clip-rule="evenodd" d="M12.285 2.0089C12.0951 1.99947 11.9048 1.99947 11.7148 2.0089C10.9814 2.04532 10.3063 2.25841 9.5536 2.60768C8.82087 2.94771 7.96944 3.43929 6.89227 4.0612L6.83127 4.09642C5.75409 4.71832 4.90266 5.20989 4.24182 5.67444C3.56301 6.15162 3.04089 6.62979 2.64268 7.24669C2.53952 7.40649 2.44436 7.57131 2.35755 7.74055C2.0224 8.39386 1.86936 9.08511 1.79551 9.91157C1.72362 10.7161 1.72363 11.6993 1.72363 12.9431V13.0135C1.72363 14.2574 1.72362 15.2405 1.79551 16.0451C1.86936 16.8715 2.0224 17.5628 2.35755 18.2161C2.44437 18.3853 2.53953 18.5502 2.64268 18.71C3.04089 19.3269 3.56301 19.805 4.24182 20.2822C4.90264 20.7467 5.75403 21.2383 6.83115 21.8602L6.89224 21.8954C7.96939 22.5173 8.82089 23.009 9.5536 23.349C10.3063 23.6983 10.9814 23.9113 11.7148 23.9478C11.9048 23.9572 12.0951 23.9572 12.285 23.9478C13.0184 23.9113 13.6936 23.6983 14.4462 23.349C15.179 23.0089 16.0304 22.5174 17.1076 21.8954L17.1685 21.8603C18.2457 21.2383 19.0972 20.7468 19.758 20.2822C20.4368 19.805 20.9589 19.3269 21.3571 18.71C21.4603 18.5502 21.5555 18.3853 21.6423 18.2161C21.9774 17.5628 22.1305 16.8715 22.2043 16.0451C22.2762 15.2405 22.2762 14.2574 22.2762 13.0136V12.9431C22.2762 11.6993 22.2762 10.7161 22.2043 9.91157C22.1305 9.08511 21.9774 8.39386 21.6423 7.74054C21.5555 7.57131 21.4603 7.40649 21.3571 7.24669C20.9589 6.62978 20.4368 6.15162 19.758 5.67444C19.0972 5.20989 18.2457 4.71832 17.1685 4.09641L17.1075 4.06119C16.0304 3.43929 15.1789 2.9477 14.4462 2.60768C13.6936 2.25841 13.0184 2.04531 12.285 2.0089ZM11.7892 3.50706C11.9296 3.50009 12.0702 3.50009 12.2107 3.50706C12.6835 3.53053 13.1629 3.6658 13.8148 3.96831C14.4797 4.27688 15.2737 4.73445 16.3881 5.37785C17.5024 6.02124 18.2957 6.48001 18.8954 6.90157C19.4833 7.31487 19.8402 7.66244 20.0969 8.06018C20.1731 8.1783 20.2435 8.30012 20.3076 8.42521C20.5237 8.84642 20.6463 9.32925 20.7103 10.0451C20.7755 10.7752 20.7762 11.6915 20.7762 12.9783C20.7762 14.2651 20.7755 15.1815 20.7103 15.9116C20.6463 16.6274 20.5237 17.1102 20.3076 17.5314C20.2435 17.6565 20.1731 17.7784 20.0969 17.8965C19.8402 18.2942 19.4833 18.6418 18.8954 19.0551C18.2957 19.4766 17.5024 19.9354 16.3881 20.5788C15.2737 21.2222 14.4797 21.6798 13.8148 21.9883C13.1629 22.2909 12.6835 22.4261 12.2107 22.4496C12.0702 22.4566 11.9296 22.4566 11.7892 22.4496C11.3163 22.4261 10.8369 22.2909 10.185 21.9883C9.52009 21.6798 8.72616 21.2222 7.61177 20.5788C6.49738 19.9354 5.70415 19.4766 5.10446 19.0551C4.51653 18.6418 4.15967 18.2942 3.90293 17.8965C3.82668 17.7784 3.75635 17.6565 3.69218 17.5315C3.4761 17.1102 3.35352 16.6274 3.28956 15.9116C3.22432 15.1815 3.22363 14.2651 3.22363 12.9783C3.22363 11.6915 3.22432 10.7752 3.28956 10.0451C3.35352 9.32926 3.4761 8.84642 3.69218 8.42521C3.75635 8.30012 3.82668 8.1783 3.90293 8.06018C4.15967 7.66244 4.51653 7.31487 5.10446 6.90157C5.70414 6.48001 6.49738 6.02124 7.61177 5.37785C8.72616 4.73445 9.52009 4.27688 10.185 3.96831C10.8369 3.6658 11.3163 3.53053 11.7892 3.50706Z" fill="#2C52F5"/>
</svg>
