<svg width="25" height="25" viewBox="0 0 25 25" fill="none" xmlns="http://www.w3.org/2000/svg">
<path d="M16.499 8.92554C16.9132 8.92554 17.249 8.58975 17.249 8.17554C17.249 7.76132 16.9132 7.42554 16.499 7.42554L8.49902 7.42554C8.08481 7.42554 7.74902 7.76132 7.74902 8.17554C7.74902 8.58975 8.08481 8.92554 8.49902 8.92554L16.499 8.92554Z" fill="#2C52F5"/>
<path d="M13.499 11.4255C13.0848 11.4255 12.749 11.7613 12.749 12.1755C12.749 12.5898 13.0848 12.9255 13.499 12.9255H16.499C16.9132 12.9255 17.249 12.5898 17.249 12.1755C17.249 11.7613 16.9132 11.4255 16.499 11.4255H13.499Z" fill="#2C52F5"/>
<path fill-rule="evenodd" clip-rule="evenodd" d="M16.9625 1.54927C15.8204 1.42552 14.3808 1.42553 12.5443 1.42554H12.4538C10.6172 1.42553 9.17764 1.42552 8.0355 1.54927C6.86996 1.67554 5.92558 1.93786 5.11926 2.52369C4.63111 2.87835 4.20183 3.30763 3.84718 3.79577C3.26135 4.6021 2.99903 5.54648 2.87275 6.71201C2.74901 7.85415 2.74902 9.29375 2.74902 11.1303V13.1866C2.74902 14.3467 2.74902 15.344 2.77839 16.2012C2.84258 18.0747 3.04532 19.4516 3.84718 20.5553C4.20183 21.0434 4.63111 21.4727 5.11926 21.8274C6.22292 22.6292 7.5999 22.832 9.47334 22.8962C10.3306 22.9255 11.3279 22.9255 12.488 22.9255H12.5443C14.3808 22.9255 15.8204 22.9256 16.9625 22.8018C18.1281 22.6755 19.0725 22.4132 19.8788 21.8274C20.3669 21.4727 20.7962 21.0434 21.1509 20.5553C21.7367 19.749 21.999 18.8046 22.1253 17.6391C22.249 16.4969 22.249 15.0574 22.249 13.2209V11.1303C22.249 9.29378 22.249 7.85413 22.1253 6.71201C21.999 5.54648 21.7367 4.6021 21.1509 3.79577C20.7962 3.30763 20.3669 2.87835 19.8788 2.52369C19.0725 1.93786 18.1281 1.67554 16.9625 1.54927ZM6.00094 3.73722C6.50894 3.36813 7.15916 3.15299 8.19707 3.04054C9.24902 2.92657 10.6075 2.92554 12.499 2.92554C14.3906 2.92554 15.749 2.92657 16.801 3.04054C17.8389 3.15299 18.4891 3.36813 18.9971 3.73722C19.3579 3.99935 19.6752 4.31665 19.9373 4.67745C20.3064 5.18545 20.5216 5.83567 20.634 6.87358C20.748 7.92553 20.749 9.28397 20.749 11.1755V13.1755C20.749 15.0671 20.748 16.4255 20.634 17.4775C20.5216 18.5154 20.3064 19.1656 19.9373 19.6736C19.6752 20.0344 19.3579 20.3517 18.9971 20.6139C18.4891 20.9829 17.8389 21.1981 16.801 21.3105C15.749 21.4245 14.3906 21.4255 12.499 21.4255C11.6507 21.4255 10.9072 21.4255 10.2472 21.4147C10.2428 20.9401 10.2281 20.5906 10.1782 20.276C9.78855 17.8157 7.8589 15.886 5.39852 15.4963C5.08392 15.4465 4.73449 15.4317 4.25984 15.4274C4.24907 14.7673 4.24902 14.0239 4.24902 13.1755V11.1755C4.24902 9.28397 4.25005 7.92553 4.36402 6.87358C4.47648 5.83567 4.69162 5.18545 5.0607 4.67745C5.32284 4.31665 5.64013 3.99935 6.00094 3.73722ZM8.6967 20.5107C8.72917 20.7157 8.74156 20.9532 8.74624 21.3581C7.3859 21.2643 6.60039 21.0494 6.00094 20.6139C5.64013 20.3517 5.32284 20.0344 5.0607 19.6736C4.62517 19.0742 4.41024 18.2887 4.31647 16.9283C4.72141 16.933 4.95884 16.9454 5.16387 16.9779C6.98241 17.2659 8.40867 18.6921 8.6967 20.5107Z" fill="#2C52F5"/>
</svg>
