<svg width="22" height="24" viewBox="0 0 22 24" fill="none" xmlns="http://www.w3.org/2000/svg">
<path fill-rule="evenodd" clip-rule="evenodd" d="M11.0726 8.1548C9.00151 8.1548 7.32258 9.83373 7.32258 11.9048C7.32258 13.9759 9.00151 15.6548 11.0726 15.6548C13.1436 15.6548 14.8226 13.9759 14.8226 11.9048C14.8226 9.83373 13.1436 8.1548 11.0726 8.1548ZM8.82258 11.9048C8.82258 10.6622 9.82994 9.6548 11.0726 9.6548C12.3152 9.6548 13.3226 10.6622 13.3226 11.9048C13.3226 13.1474 12.3152 14.1548 11.0726 14.1548C9.82994 14.1548 8.82258 13.1474 8.82258 11.9048Z" fill="#2C52F5"/>
<path fill-rule="evenodd" clip-rule="evenodd" d="M14.4873 3.13708C13.5069 -0.298299 8.63828 -0.298298 7.65786 3.13708C7.3541 4.20149 6.26055 4.83285 5.18687 4.56371C1.72153 3.69508 -0.712769 7.91142 1.77215 10.4782C2.54207 11.2734 2.54207 12.5362 1.77215 13.3314C-0.712769 15.8982 1.72153 20.1145 5.18687 19.2459C6.26055 18.9768 7.3541 19.6081 7.65786 20.6725C8.63828 24.1079 13.5069 24.1079 14.4873 20.6725C14.7911 19.6081 15.8846 18.9768 16.9583 19.2459C20.4236 20.1145 22.8579 15.8982 20.373 13.3314C19.6031 12.5362 19.6031 11.2734 20.373 10.4782C22.8579 7.91142 20.4236 3.69508 16.9583 4.56371C15.8846 4.83285 14.7911 4.20149 14.4873 3.13708ZM9.10027 3.54873C9.66655 1.56449 12.4786 1.56449 13.0449 3.54873C13.5708 5.39157 15.4641 6.48466 17.323 6.0187C19.3245 5.51699 20.7306 7.9523 19.2953 9.43483C17.9623 10.8117 17.9623 12.9979 19.2953 14.3748C20.7306 15.8573 19.3245 18.2926 17.323 17.7909C15.4641 17.3249 13.5708 18.418 13.0449 20.2609C12.4786 22.2451 9.66655 22.2451 9.10027 20.2609C8.57435 18.418 6.68106 17.3249 4.82216 17.7909C2.82062 18.2926 1.41459 15.8573 2.84985 14.3748C4.18284 12.9979 4.18284 10.8117 2.84985 9.43483C1.41459 7.9523 2.82062 5.51699 4.82216 6.0187C6.68106 6.48466 8.57435 5.39157 9.10027 3.54873Z" fill="#7B8694"/>
</svg>
