<svg width="25" height="24" viewBox="0 0 25 24" fill="none" xmlns="http://www.w3.org/2000/svg">
<g clip-path="url(#clip0_1005_3468)">
<path d="M6.44972 1.84456C6.77317 1.5858 6.82561 1.11383 6.56685 0.790387C6.3081 0.46694 5.83613 0.414499 5.51268 0.673257L3.01268 2.67326C2.68923 2.93201 2.63679 3.40398 2.89555 3.72743C3.15431 4.05088 3.62628 4.10332 3.94972 3.84456L6.44972 1.84456Z" fill="#2C52F5"/>
<path d="M19.4497 0.673257C19.1263 0.414499 18.6543 0.46694 18.3955 0.790387C18.1368 1.11383 18.1892 1.5858 18.5127 1.84456L21.0127 3.84456C21.3361 4.10332 21.8081 4.05088 22.0669 3.72743C22.3256 3.40398 22.2732 2.93201 21.9497 2.67326L19.4497 0.673257Z" fill="#2C52F5"/>
<path d="M13.2312 7.00891C13.2312 6.59469 12.8954 6.25891 12.4812 6.25891C12.067 6.25891 11.7312 6.59469 11.7312 7.00891V12.0089C11.7313 12.7218 12.5932 13.0789 13.0973 12.5748L15.1329 10.5392C15.4258 10.2463 15.4258 9.77147 15.1329 9.47858C14.84 9.18569 14.3651 9.18569 14.0722 9.47858L13.2312 10.3196V7.00891Z" fill="#2C52F5"/>
<path fill-rule="evenodd" clip-rule="evenodd" d="M12.4812 1.25891C6.54414 1.25891 1.7312 6.07185 1.7312 12.0089C1.7312 17.946 6.54414 22.7589 12.4812 22.7589C18.4183 22.7589 23.2312 17.946 23.2312 12.0089C23.2312 6.07185 18.4183 1.25891 12.4812 1.25891ZM3.2312 12.0089C3.2312 6.90027 7.37257 2.75891 12.4812 2.75891C17.5898 2.75891 21.7312 6.90027 21.7312 12.0089C21.7312 17.1175 17.5898 21.2589 12.4812 21.2589C7.37257 21.2589 3.2312 17.1175 3.2312 12.0089Z" fill="#2C52F5"/>
</g>
<defs>
<clipPath id="clip0_1005_3468">
<rect width="24" height="24" fill="white" transform="translate(0.481201 0.00891113)"/>
</clipPath>
</defs>
</svg>
