<svg width="18" height="23" viewBox="0 0 18 23" fill="none" xmlns="http://www.w3.org/2000/svg">
<path d="M2.49462 6.55035C2.07345 3.18101 4.70064 0.204987 8.09619 0.204987H9.79911C11.42 0.204987 12.8659 0.882381 13.8895 1.95685C12.2821 2.01304 10.9962 3.33385 10.9962 4.95499C10.9962 6.61184 12.3394 7.95499 13.9962 7.95499C14.4726 7.95499 14.9231 7.84394 15.3231 7.64632C15.37 8.44535 15.722 9.20468 16.3191 9.75919L16.363 9.79995C17.9763 11.2982 18.2894 13.7349 17.1073 15.5923C16.2698 16.9082 14.8182 17.705 13.2585 17.705H5.03769C3.22945 17.705 1.58015 16.6719 0.790985 15.045L0.687634 14.8319C-0.159016 13.0865 0.237079 10.9925 1.66276 9.67693C2.35077 9.04205 2.6901 8.11415 2.57398 7.1852L2.49462 6.55035Z" fill="#9FA5BA"/>
<path d="M5.72961 19.355C6.06098 19.1065 6.53108 19.1736 6.77961 19.505L7.07961 19.905C8.12961 21.305 10.2296 21.305 11.2796 19.905L11.5796 19.505C11.8281 19.1736 12.2982 19.1065 12.6296 19.355C12.961 19.6035 13.0281 20.0736 12.7796 20.405L12.4796 20.805C10.8296 23.005 7.52961 23.005 5.87961 20.805L5.57961 20.405C5.33108 20.0736 5.39824 19.6035 5.72961 19.355Z" fill="#9FA5BA"/>
<circle cx="14.0544" cy="4.95288" r="2.76779" fill="#2C52F5"/>
</svg>
