<svg width="38" height="37" viewBox="0 0 38 37" fill="none" xmlns="http://www.w3.org/2000/svg">
<path fill-rule="evenodd" clip-rule="evenodd" d="M34.1024 18.4705C34.1024 26.8636 27.2985 33.6676 18.9054 33.6676C10.5123 33.6676 3.70835 26.8636 3.70835 18.4705C3.70835 10.0774 10.5123 3.2735 18.9054 3.2735C27.2985 3.2735 34.1024 10.0774 34.1024 18.4705ZM21.2739 11.8771C19.7968 9.90765 16.7156 10.4077 15.9371 12.7432L15.4276 14.2719C15.2285 14.869 14.583 15.1918 13.9858 14.9927C13.3887 14.7937 13.0659 14.1482 13.265 13.551L13.7745 12.0223C15.1345 7.94233 20.5171 7.06886 23.0975 10.5094C24.6091 12.5248 24.5036 15.3231 22.8447 17.219L21.4478 18.8155C20.5436 19.8489 20.0452 21.1754 20.0452 22.5485V23.0296C20.0452 23.6591 19.5349 24.1694 18.9054 24.1694C18.2759 24.1694 17.7656 23.6591 17.7656 23.0296V22.5485C17.7656 20.6232 18.4644 18.7633 19.7322 17.3144L21.1292 15.7179C22.0788 14.6326 22.1391 13.0308 21.2739 11.8771ZM18.9054 29.1084C19.7447 29.1084 20.4251 28.4281 20.4251 27.5887C20.4251 26.7494 19.7447 26.069 18.9054 26.069C18.0661 26.069 17.3857 26.7494 17.3857 27.5887C17.3857 28.4281 18.0661 29.1084 18.9054 29.1084Z" fill="#248A88"/>
</svg>
