<svg width="25" height="25" viewBox="0 0 25 25" fill="none" xmlns="http://www.w3.org/2000/svg">
<g clip-path="url(#clip0_1050_500)">
<path fill-rule="evenodd" clip-rule="evenodd" d="M11.9738 0.454987C6.58898 0.454987 2.22375 4.82021 2.22375 10.205C2.22375 15.5898 6.58898 19.955 11.9738 19.955C17.3585 19.955 21.7238 15.5898 21.7238 10.205C21.7238 4.82021 17.3585 0.454987 11.9738 0.454987ZM3.72375 10.205C3.72375 5.64864 7.41741 1.95499 11.9738 1.95499C16.5301 1.95499 20.2238 5.64864 20.2238 10.205C20.2238 14.7613 16.5301 18.455 11.9738 18.455C7.41741 18.455 3.72375 14.7613 3.72375 10.205Z" fill="#9FA4BA"/>
<path d="M20.5042 17.6748C20.2113 17.3819 19.7364 17.3819 19.4435 17.6747C19.1506 17.9676 19.1506 18.4425 19.4435 18.7354L23.4434 22.7354C23.7363 23.0282 24.2111 23.0283 24.504 22.7354C24.7969 22.4425 24.7969 21.9676 24.504 21.6747L20.5042 17.6748Z" fill="#9FA4BA"/>
</g>
<defs>
<clipPath id="clip0_1050_500">
<rect width="24" height="24" fill="white" transform="translate(0.973755 0.204987)"/>
</clipPath>
</defs>
</svg>
